<svg xmlns="http://www.w3.org/2000/svg" width="123" height="120" viewBox="0 0 123 120"><defs><style>.cls-1{fill:#29275e}.cls-2{fill:#fbce00}</style></defs><title>assets</title><g id="layer_2" data-name="layer_2"><g id="layer_1-2" data-name="layer_1"><path class="cls-1" d="M49.78 0L26.25 33.63l23.53 33.61h22.43L48.66 33.63 72.21 0H49.78z"/><path class="cls-2" d="M72.21 0h11.2L59.87 33.63l23.54 33.61h-11.2L48.66 33.63 72.21 0z"/><path class="cls-1" d="M11.29 81.61c-.62-.74-1.93-2.15-2.55-2.8L11 77.74a26.82 26.82 0 0 1 4.34 5.45l-2.46 1.2a11 11 0 0 0-.8-1.62c-4 .24-8.12.46-10.77.62a.7.7 0 0 1-.49.43L0 81.94c.77 0 1.79 0 2.74-.06a23.53 23.53 0 0 0 1.71-5.37l3.49 1c-.09.22-.34.33-.74.33-.46 1-1.14 2.85-1.82 4zM6.4 99.89a13 13 0 0 1-3.4 5.57l-2.71-1.2a10.63 10.63 0 0 0 3.26-5zM13.54 85v10.42c0 2.32-1.27 2.59-5.78 2.59-.12-.68-.49-.88-.77-1.5h1.88c1.48 0 1.63 0 1.63-.49v-2.55h-6v4.66H1.4V85zm-3 1.24h-6v2.4h6zm-6 6h6v-2.4h-6zm5.26 12.88a27.15 27.15 0 0 0-.35-5.05l2.68-.21a24.73 24.73 0 0 1 .53 4.93zm7.39 0a31.59 31.59 0 0 0-1.48-5l2.74-.52a28.89 28.89 0 0 1 1.6 4.86zm7.45-19.43c1 0 1.23-1.4 1.35-3.67a6.23 6.23 0 0 0 2.42 1c-.31 3.2-1.11 4-3.5 4H20c-3.17 0-4-.71-4-3.35v-7l3.76.21c0 .25-.22.4-.71.49v3.3a40.38 40.38 0 0 0 6.23-2.44l1.64 1.5c-.12.09-.37 0-.77 0a44.38 44.38 0 0 1-7.1 2.21v2.83c0 .86.25 1 1.54 1zm-5.53 9.85c0 .86.25 1 1.57 1h4.14c1 0 1.23-1.27 1.36-3.58a9.09 9.09 0 0 0 2.46 1c-.31 3.26-1.11 4-3.57 4H20c-3.23 0-4-.6-4-3.28v-7.19l3.76.21c0 .25-.22.43-.71.49v3.18a36.63 36.63 0 0 0 6.55-2.5L27 90.3c-.09.09-.21 0-.71 0a43.56 43.56 0 0 1-7.28 2.34zm6.51 9.81a24.33 24.33 0 0 0-3.51-5.24l2.71-1a25.55 25.55 0 0 1 3.73 5.12zM59.71 86.05H48.94A28.23 28.23 0 0 0 60.6 98.13a9.27 9.27 0 0 0-1.91 2.16 30.78 30.78 0 0 1-11.1-11.51v8.54h5.63v1.51h-5.63v6.54h-3.08v-6.54h-5.75v-1.5h5.75v-8.55a30 30 0 0 1-11 11.6 11.79 11.79 0 0 0-1.9-2 27.54 27.54 0 0 0 11.48-12.33H32.48v-1.5h12v-8l3.82.25c0 .25-.25.43-.74.52v7.21h12.15zM91.12 87.57H79.29c1.91 6.83 5.79 12.91 12.24 15.16a10.39 10.39 0 0 0-1.85 2.54c-5.8-2.34-10-7.73-12.22-14.11a21.89 21.89 0 0 1-12.28 14.11 8.82 8.82 0 0 0-2.06-2.38c7.82-3.17 11.18-9.4 12.32-15.31H63.68v-1.53h12a67.56 67.56 0 0 0 .08-9.49l3.94.25c0 .31-.27.52-.76.58 0 2.43 0 5.92-.31 8.66h12.49zM122.44 95.91v1.42h-12.31v4.81c0 3.07-1.66 3.32-7.63 3.32-.22-.83-.77-.7-1.23-1.47 1.32.06 2.58.06 3.57.06 2.06 0 2.21 0 2.21-.65v-6.07H94.86v-1.42h12.25l-.11-3.84 1.73.09a25.15 25.15 0 0 0 4.92-3.24h-13.5v-1.38h15.69l.49-.12 1.27.82a1 1 0 0 1-.59.34 32 32 0 0 1-6.93 5v2.25zM98.59 83.69v5.16h-3.08v-6.58h4.9A34 34 0 0 0 97.48 78l2.52-1.1a23.28 23.28 0 0 1 3.27 5l-1.12.4h5.82a28.59 28.59 0 0 0-2.56-4.9l2.56-1a23.6 23.6 0 0 1 2.72 5.43l-1.24.43h4a45.21 45.21 0 0 0 3.85-5.52 32.93 32.93 0 0 1 3.38 1.26c-.12.25-.37.34-.77.31-.65 1-2 2.81-3 3.92H122v6.57h-3.08v-5.11zM2.4 112.93l2.82-3.67h2.16l-3.12 3.8 3.39 4.7H5.38l-3-4.33v4.33H.58v-8.5H2.4zM12.26 117a2.06 2.06 0 0 1-1.83.91 2.15 2.15 0 0 1-1.94-1.3 4.07 4.07 0 0 1-.12-.95v-3.84h1.77v3.55c0 .63.19 1.37 1.05 1.37.55 0 1-.51 1.06-1.37v-3.55H14v4.86c0 .34 0 .7.07 1.06h-1.74zM17.38 112.54a2.05 2.05 0 0 1 1.81-.87 2.22 2.22 0 0 1 1.88 1.12 2.26 2.26 0 0 1 2-1.12 2.22 2.22 0 0 1 1.93 1.12 3.64 3.64 0 0 1 .17 1.41v3.56h-1.78v-3.56c0-.64-.19-1.35-1.06-1.35-.55 0-1 .49-1.06 1.35v3.56h-1.76v-3.56c0-.64-.19-1.35-1.06-1.35-.55 0-1 .49-1.06 1.35v3.56h-1.77v-5.91h1.76zM30 115c0 .7 0 1.79-1 1.79a.83.83 0 0 1-.86-.85c-.02-.94 1.24-.94 1.86-.94zm-1.59-1.46a.8.8 0 0 1 .79-.85.75.75 0 0 1 .81.73v.58a5.61 5.61 0 0 0-2.3.32 2 2 0 0 0-1.26 1.87 1.75 1.75 0 0 0 1.93 1.79 1.92 1.92 0 0 0 1.81-1 5.84 5.84 0 0 0 .06.79h1.59a5.78 5.78 0 0 1-.08-.65v-3.22c0-1.78-1.33-2.21-2.52-2.21a3.39 3.39 0 0 0-1.74.37 1.57 1.57 0 0 0-.8 1.47zM35 112.54a2 2 0 0 1 1.8-.87 2.23 2.23 0 0 1 1.89 1.12 2.24 2.24 0 0 1 3.88 0 3.56 3.56 0 0 1 .18 1.41v3.56H41v-3.56c0-.64-.19-1.35-1.06-1.35-.55 0-1 .49-1.06 1.35v3.56h-1.72v-3.56c0-.64-.19-1.35-1.06-1.35-.55 0-1 .49-1.06 1.35v3.56h-1.77v-5.91H35zM45.94 114.8c0-.94.18-2 1.26-2s1.25 1 1.25 2-.17 2-1.25 2-1.26-1.06-1.26-2zm4.34 0a3.08 3.08 0 1 0-3.08 3.13 2.9 2.9 0 0 0 3.08-3.13zM52 111.84v-1.16l1.76-.63v1.8h1.33V113h-1.34v2.74c0 .77.12 1 .72 1h.57v1a6.82 6.82 0 0 1-1.39.18c-1.37 0-1.67-.72-1.67-2V113H50.8v-1.18zM57.71 114.8c0-.94.17-2 1.26-2s1.25 1 1.25 2-.17 2-1.25 2-1.26-1.06-1.26-2zm4.34 0a3.08 3.08 0 1 0-3.05 3.13 2.9 2.9 0 0 0 3-3.13zM74.09 109.26v5.32c0 2.25-1.63 3.35-3.68 3.35s-3.69-1.1-3.69-3.35v-5.32h1.83v4.61c0 1.43.07 2.74 1.86 2.74s1.86-1.31 1.86-2.74v-4.61zM77.4 112.53a2 2 0 0 1 1.81-.89 2.13 2.13 0 0 1 1.96 1.36 3.92 3.92 0 0 1 .12.94v3.85h-1.76v-3.59c0-.64-.19-1.35-1.06-1.35-.56 0-1 .49-1.06 1.35v3.56h-1.77v-5.91h1.76zM84.57 111.84v5.91h-1.76v-5.91zm.06-2.58v1.51h-1.88v-1.51zM85.36 111.84h1.87l1.32 4 1.35-4h1.68l-2.14 5.91h-1.9zM94 115.27c0 .76.11 1.48 1 1.48a1 1 0 0 0 1-.75h1.59c-.16 1.46-1.29 1.95-2.67 1.95-2 0-2.84-1.15-2.84-3.12a2.83 2.83 0 0 1 2.92-3.16 2.52 2.52 0 0 1 2.51 1.41 3.19 3.19 0 0 1 .3 1.05 9 9 0 0 1 0 1.14zm2-1.18c0-.65-.18-1.25-1-1.25s-1 .6-1 1.25zM100.41 111.84v1.08a1.86 1.86 0 0 1 2-1.14v1.56h-.76a1.29 1.29 0 0 0-.86.44 2.06 2.06 0 0 0-.23 1.05v2.93h-1.69V113c0-.25 0-.74-.06-1.18zM106.5 113.43c0-.4-.4-.58-.8-.58s-.71.14-.71.53c0 .93 3.38.4 3.38 2.61 0 1.29-1.58 1.95-2.67 1.95-1.37 0-2.58-.54-2.6-1.9h1.63c0 .46.45.72 1 .72s.85-.21.85-.66-.85-.67-1.2-.75c-1.13-.28-2.18-.52-2.18-1.9s1.49-1.77 2.53-1.77c1.25 0 2.31.44 2.39 1.75zM111.16 111.84v5.91h-1.76v-5.91zm.05-2.58v1.51h-1.88v-1.51zM113.23 111.84v-1.16L115 110v1.8h1.33v1.2H115v2.74c0 .77.12 1 .73 1h.56v1a6.75 6.75 0 0 1-1.38.18c-1.37 0-1.67-.72-1.67-2V113H112v-1.18zM121.29 111.84H123l-3 8.16h-1.7l.75-2.23-2.29-5.92h1.88l1.29 4.08z"/></g></g></svg>