<?xml version="1.0" encoding="utf-8"?>
<!-- Generator: Adobe Illustrator 21.1.0, SVG Export Plug-In . SVG Version: 6.00 Build 0)  -->
<svg version="1.1" id="レイヤー_1" xmlns="http://www.w3.org/2000/svg" xmlns:xlink="http://www.w3.org/1999/xlink" x="0px"
	 y="0px" viewBox="0 0 334.1 91.4" style="enable-background:new 0 0 334.1 91.4;" xml:space="preserve">
<style type="text/css">
	.st0{fill:none;}
	.st1{fill:#7D002D;}
</style>
<rect x="0.1" class="st0" width="334" height="91.2"/>
<g>
	<g>
		<path class="st1" d="M128.7,69.8c-2.1,0-7.4,1.4-7.4,7.9c0,2.6,1.5,7.5,7.3,7.5c6.1,0,7.7-5,7.7-7.6
			C136.3,72.2,132.3,69.8,128.7,69.8z M133.7,77.6c0,3.4-1.8,6.9-5.2,6.9c-3.3,0-4.8-3.5-4.8-6.7c0-5,2.5-7.3,5-7.3
			C130.4,70.5,133.7,72.2,133.7,77.6z"/>
		<path class="st1" d="M144.2,69.9c-2,0-4.1,0-6.1,0.1h-0.1v0.7h0.1c1,0,1.4,0.1,1.4,1.1v11.4c0,1-0.2,1.1-1.4,1.1H138V85h5.8v-0.7
			h-0.1c-1.2,0-1.7-0.2-1.7-1.1v-4.5h1.8c2.8,0,5.7-1.1,5.7-4.2C149.4,71.1,146.7,69.9,144.2,69.9z M141.9,71.8
			c0-1.1,0.3-1.1,1.8-1.1c2.6,0,3.2,1.9,3.2,3.6c0,3.6-1.6,3.8-4.4,3.8h-0.6V71.8z"/>
		<path class="st1" d="M160.7,70.7h0.1c1.2,0,1.7,0.2,1.7,1.1V77h-7.5v-5.2c0-0.9,0.6-1.1,1.9-1.1h0.1V70h-6v0.7h0.1
			c0.9,0,1.4,0.2,1.4,1.1v11.4c0,0.9-0.5,1.1-1.5,1.1h-0.1V85h5.8v-0.7h-0.1c-1.3,0-1.7-0.1-1.7-1.1v-5.4h7.5v5.4
			c0,0.9-0.5,1.1-1.7,1.1h-0.1V85h5.9v-0.7h-0.1c-1,0-1.5-0.1-1.5-1.1V71.8c0-0.9,0.5-1.1,1.5-1.1h0.1V70h-5.9V70.7z"/>
		<path class="st1" d="M169.1,70.7h0.1c1.3,0,1.8,0.2,1.8,1.1v11.4c0,0.9-0.5,1.1-1.8,1.1h-0.1V85h6.3v-0.7h-0.1
			c-1.3,0-1.8-0.1-1.8-1.1V71.8c0-0.9,0.5-1.1,1.8-1.1h0.1V70h-6.3V70.7z"/>
		<path class="st1" d="M189.2,82.4l-5-12.9l-0.2,0.3c-0.5,0.6-1,1.2-1.6,1.6l-0.1,0.1l0.4,0.7l-4.3,11.3c-0.2,0.5-0.7,0.9-1.2,0.9
			l-0.1,0V85h4.1v-0.7l-0.1,0c-0.1,0-0.2,0-0.3,0c-0.7-0.1-1.3-0.2-1.3-0.7c0-0.3,0.5-1.6,0.9-2.6c0.2-0.6,0.4-1.1,0.5-1.5h4.9
			c0.1,0.4,0.3,0.9,0.6,1.5c0.4,1,0.9,2.3,0.9,2.6c0,0.7-0.9,0.7-1.7,0.7h-0.1V85h5.8v-0.7l-0.1,0C189.9,84.1,189.6,83.6,189.2,82.4
			z M185.3,78.5H181l2-5.5L185.3,78.5z"/>
		<path class="st1" d="M206.9,70.7l0.1,0c1.5,0.1,2.1,0.2,2.1,1.5V80c0,3.1-1.3,4.6-4.2,4.6c-3.3,0-3.9-2.1-3.9-3.8v-8.6
			c0-1.1,0.2-1.5,1.6-1.5h0.2V70H197v0.7l0.1,0c1.3,0.1,1.4,0.2,1.4,1.5v8c0,2.3,1,5.1,5.7,5.1c3.9,0,5.7-1.7,5.7-5.3v-7.8
			c0-1,0.5-1.5,1.7-1.5h0.1V70h-4.9V70.7z"/>
		<path class="st1" d="M224.5,70.7l0.1,0c1.3,0.1,1.7,0.3,1.7,1.2v9.3L216.2,70h-3.3v0.7h0.1c0.7,0,1.1,0.5,1.7,1.1l0,0.1v11.2
			c0,0,0,0.1,0,0.1c-0.1,0.9-0.6,1-1.5,1l-0.3,0V85h4.6v-0.7l-0.1,0c-1.6,0-1.8-0.6-1.8-1.1V72.8l11.1,12.3l0,0h0.5V71.9
			c0-0.6,0.3-1,1.8-1.2l0.1,0V70h-4.6V70.7z"/>
		<path class="st1" d="M230.4,70.7h0.1c1.3,0,1.8,0.2,1.8,1.1v11.4c0,0.9-0.5,1.1-1.8,1.1h-0.1V85h6.3v-0.7h-0.1
			c-1.3,0-1.8-0.1-1.8-1.1V71.8c0-0.9,0.5-1.1,1.8-1.1h0.1V70h-6.3V70.7z"/>
		<path class="st1" d="M247.4,70.7l0.2,0c0.6,0,1.7,0.1,1.7,0.8c0,0.4-0.3,1.3-0.7,2.4l-3,7.8l-3.6-9c0,0,0-0.1-0.1-0.2
			c-0.1-0.3-0.4-1-0.4-1.2c0-0.5,0.9-0.6,1.5-0.6c0.1,0,0.2,0,0.3,0l0.1,0V70h-5.8v0.7h0.1c0.4,0,0.8,0,1,0.3l0.1,0.2
			c0.3,0.6,0.6,1.3,1.1,2.4l4.7,11.7h0.5l4.5-11.9l0.1-0.2c0.3-0.9,0.8-2.4,1.9-2.4l0.1,0V70h-4.3V70.7z"/>
		<path class="st1" d="M265.5,80.8c-0.6,0.9-1.2,1.8-1.9,2.4c-0.8,0.8-1.3,1-2.4,1h-2.4c-0.9,0-1.3-0.1-1.3-0.9v-5.5h1.3
			c1.9,0,2.9,0.4,3.1,2.8l0,0.1h0.6v-6.4H262l0,0.1c-0.5,2.3-1.2,2.6-3.3,2.6h-1v-6.3h3.1c1,0,2.1,0.2,3.3,1.7
			c0.3,0.4,0.7,0.9,1,1.3l0,0.1l0.7-0.2l-1.1-3.7h-11v0.7h0.1c1.1,0,1.6,0.2,1.6,1.1v11.4c0,1-0.5,1.1-1.5,1.1h-0.1V85h11.8l0.9-4.1
			L265.5,80.8L265.5,80.8z"/>
		<path class="st1" d="M280.2,83.1c-0.8-1.7-2.2-3.7-3.5-5.1c1.6-0.6,3.2-1.5,3.2-4c0-3.1-2.9-4.1-5.5-4.1c-1,0-2,0-2.9,0
			c-0.9,0-1.9,0.1-2.8,0.1h-0.1v0.7h0.1c1,0,1.4,0.1,1.4,1.1v11.5c0,0.4,0,0.7-0.2,0.8c-0.2,0.2-0.6,0.2-1.3,0.2h-0.1V85h5.8v-0.7
			H274c-1.3,0-1.7-0.1-1.7-1.1v-4.9c0.9,0,1.7,0.2,2.3,0.8c1.3,1.3,2.9,4.2,3.8,5.8l0,0.1h3.7v-0.7h-0.1
			C281.2,84.3,280.6,83.9,280.2,83.1z M272.4,71.8c0-1,0.4-1.1,1.5-1.1c2.2,0,3.5,1.3,3.5,3.4c0,2.1-1.1,3.3-3.2,3.5
			c-0.6,0-1.2,0.1-1.8,0.1V71.8z"/>
		<path class="st1" d="M289,76.3c-1.5-0.4-2.9-0.8-2.9-2.6c0-1,0.2-1.8,0.8-2.3c0.5-0.5,1.3-0.8,2.2-0.8c0.8,0,1.6,0.4,2.3,1.1
			c0.7,0.7,1,1.9,1.3,2.9c0,0.2,0.1,0.3,0.1,0.5l0,0.1h0.6l-0.1-4.6h-0.5l-0.6,0.5c-0.9-0.7-2.2-1.2-3.5-1.2c-1.4,0-2.6,0.5-3.5,1.4
			c-0.8,0.8-1.2,1.8-1.1,3c0.1,2.9,1.7,3.7,4.2,4.5c0.2,0.1,0.5,0.2,0.8,0.3c1.4,0.5,2.8,0.9,2.8,2.6c0,0.3,0,1.3-0.8,2.1
			c-0.6,0.6-1.4,0.9-2.5,0.9c-3,0-3.9-2.6-4.1-4.2l0-0.1h-0.7l0.1,4.7h0.4l0.8-0.8c1.1,0.7,2.4,1.1,3.7,1.1c1.8,0,3.2-0.5,4.1-1.4
			c0.7-0.7,1-1.7,1-2.9C293.9,78,291.3,77,289,76.3z"/>
		<path class="st1" d="M114.5,76.3c-1.5-0.4-2.9-0.8-2.9-2.6c0-1,0.2-1.8,0.8-2.3c0.5-0.5,1.2-0.8,2.2-0.8c0.8,0,1.6,0.4,2.3,1.1
			c0.6,0.7,1,1.9,1.3,2.9c0,0.2,0.1,0.3,0.1,0.5l0,0.1h0.6l-0.1-4.6h-0.5l-0.6,0.5c-0.9-0.7-2.2-1.2-3.5-1.2c-1.4,0-2.6,0.5-3.5,1.4
			c-0.8,0.8-1.2,1.8-1.1,3c0.1,2.9,1.7,3.7,4.2,4.5c0.2,0.1,0.5,0.2,0.8,0.3c1.4,0.5,2.8,0.9,2.8,2.6c0,0.3,0,1.3-0.8,2.1
			c-0.6,0.6-1.4,0.9-2.5,0.9c-3,0-3.9-2.6-4.1-4.2l0-0.1h-0.7l0.1,4.7h0.5l0.7-0.8c1.1,0.7,2.4,1.1,3.7,1.1c1.8,0,3.2-0.5,4.1-1.4
			c0.7-0.7,1.1-1.7,1-2.9C119.4,78,116.8,77,114.5,76.3z"/>
		<path class="st1" d="M296.5,70.7h0.1c1.3,0,1.8,0.2,1.8,1.1v11.4c0,0.9-0.5,1.1-1.8,1.1h-0.1V85h6.3v-0.7h-0.1
			c-1.3,0-1.8-0.1-1.8-1.1V71.8c0-0.9,0.6-1.1,1.8-1.1h0.1V70h-6.3V70.7z"/>
		<path class="st1" d="M317.6,69.6c-0.5,0.2-1.2,0.3-1.8,0.3H307c-0.6,0-1.3-0.2-1.8-0.3l-0.1,0l-0.9,4.2l0.5,0.2l0.1-0.1
			c0.3-0.4,0.6-0.8,0.9-1.2c0.3-0.4,0.5-0.8,0.8-1.2l0.1-0.1c0.4-0.5,0.6-0.7,1.3-0.7h2.5v12.5c0,0.8-0.3,1-1.8,1.1l-0.1,0V85h6.3
			v-0.7l-0.1,0c-1.6-0.1-1.8-0.3-1.8-1.1V70.7h2.4c0.7,0,0.9,0.2,1.3,0.7l0.1,0.1c0.4,0.5,0.7,1,1.1,1.6c0.2,0.3,0.3,0.6,0.5,0.9
			l0.1,0.1l0.5-0.3l-0.8-4.2L317.6,69.6z"/>
		<path class="st1" d="M328.6,70v0.6l0,0.1l0.1,0c0.6,0.1,1.2,0.2,1.2,0.7c0,0.7-1.4,2.9-2.4,4.3c-0.3,0.5-0.7,1-0.9,1.3l-1.6-2.8
			c-0.1-0.1-0.2-0.3-0.4-0.6c-0.4-0.7-1.2-2.1-1.3-2.3c0-0.6,0.7-0.6,1.4-0.6h0.1V70h-5.6v0.7h0.1c0.8,0,1.2,0.7,1.6,1.4
			c0.1,0.1,0.1,0.2,0.2,0.3l3.4,5.9v4.9c0,0.9-0.5,1.1-1.4,1.1h-0.1V85h5.6v-0.7h-0.1c-1,0-1.5-0.2-1.5-1.1V78l3.9-6.3
			c0.3-0.5,0.6-0.8,1.2-0.9l0.1,0V70H328.6z"/>
	</g>
	<g>
		<path class="st1" d="M148.7,51.3H135V27.3h16.8c1.6,0,2.3-0.2,2.7-0.9l0,0l-6.6-4.8l-3.2,4.2H135V9.4c1.1-0.3,2.2-1.6,2.3-2.4
			l0-0.1L129,6.2l-0.1,0v45.2h-20v0.4v1.2H156c1.5,0,2.2-0.2,2.7-0.9l0,0l-6.7-4.8L148.7,51.3z"/>
		<path class="st1" d="M181.7,26.1c2.4,1.8,4.5,4.3,5.4,6.4l0,0l0,0c0.5,0.4,1.1,0.6,1.7,0.6c1.4,0,2.5-1.2,2.5-2.8
			c0-2.3-2.4-5-9-5.6c0.3-0.9,0.6-1.8,0.8-2.6h8.2c1.5,0,2.2-0.6,2.6-1.3l0,0l-5.3-3.9l0,0l-2.8,3.7h-2.2c0.3-1.9,0.5-4.1,0.6-6.8
			h6.3c1.4,0,2.1-0.7,2.5-1.4l0,0l-5.3-3.9l0,0l-2.8,3.8h-7.9l0.1-0.2c0.5-0.8,0.8-1.4,1.2-2.4c1.2,0,2-0.8,2.2-1.6l0,0l-7-2l-0.1,0
			V6c-0.8,5.3-2.4,10.3-4.1,13.1l0,0l0.8,0.5l0,0c2.1-1.4,4.1-3.4,5.8-5.9h2.6c0,0.2,0,0.4,0,0.6c0,2.2-0.1,4.3-0.3,6.2h-10.8v1.2
			v0.4h10.6c-1,5.7-4.1,9.5-10,12.6l-0.1,0l0.7,0.9l0,0C175.3,33.2,179.5,30.2,181.7,26.1z"/>
		<path class="st1" d="M210.3,8.4l-2.2,2.9h-8L194.5,9l-0.1,0v22.9h0.1c4.7,0,5.4-2,5.4-2v-2.4h8.7v3.3h0.1c3.8,0,5.5-1.2,5.5-1.4
			V14.2c1.1-0.2,1.8-0.7,2.2-1.4l0,0L210.3,8.4L210.3,8.4z M199.9,12.9h8.7v13h-8.7V12.9z"/>
		<path class="st1" d="M204.4,32.2l-2.2,2.7h-20.7l-5.9-2.2h-0.1V56h0.1c5,0,5.6-2.1,5.6-2.1v-1.3h21.5v3.1h0.1
			c3.9,0,5.7-1.3,5.7-1.5V37.4c0.9-0.1,1.7-0.5,2.1-1.1l0,0L204.4,32.2L204.4,32.2z M202.7,51h-21.5v-6.7h21.5V51z M202.7,42.7
			h-21.5v-6.3h21.5V42.7z"/>
		<path class="st1" d="M252.5,23.5h20.1c1.5,0,2.2-0.2,2.6-0.9l0,0l-6.8-4.8l0,0l-3.3,4.2h-13.3c0.4-3.8,0.5-7.2,0.5-11
			c0-0.5,0-1,0-1.5c1.4-0.3,2.1-1.4,2.2-2.4l0-0.1L246,6.2v0.1c0,7.4,0,11.3-0.4,15.6h-20.1v0.4v1.2h20c-1,10.2-4.3,21.9-20.2,31.7
			l0,0l0.6,0.9l0,0c8.9-3.7,15.2-8.4,19.4-14.2c3.4-4.7,5.4-10.3,6.3-17.6c2,15.1,8.1,25.5,18.6,31.8l0.1,0l0-0.1
			c0.5-3.2,2.2-4.9,5.2-5.5l0,0l0.1-0.7l0,0C262.6,44.4,254.8,35.5,252.5,23.5z"/>
		<path class="st1" d="M294.9,16.4L294.9,16.4L294.9,16.4c0.7,0.8,1.6,1.2,2.4,1.2c1.7,0,3-1.5,3-3.3c0-0.9-0.3-2.3-1.9-3.7
			c-1.5-1.4-3.9-2.5-6.9-3.3l0,0L291,7.6l0,0C293.1,9.8,294.7,13.5,294.9,16.4z"/>
		<path class="st1" d="M306.2,15.7L306.2,15.7L306.2,15.7c0.7,0.9,1.6,1.4,2.6,1.4c1.8,0,3.3-1.7,3.3-3.7c0-1.4-0.8-4.9-8.3-7.5l0,0
			l-0.5,0.4l0,0C305.2,8.7,306.4,12.7,306.2,15.7z"/>
		<path class="st1" d="M333.7,21.4L333.7,21.4l-5.8-5.6l-3.3,3.4h-7.7c3.9-2.8,7.5-6,9.9-8.7c0.2,0,0.4,0,0.6,0c0.1,0,0.3,0,0.5,0
			c0.7-0.2,1.1-0.5,1.4-0.9l0,0l-7.7-3.1l0,0l0,0c-1.4,3.7-3.8,9-6.1,12.7h-23.7c-0.2-0.9-0.5-1.8-0.8-2.7l0,0l-0.8,0.1v0
			c0.2,3-1.8,5.4-3.8,6.3c-1.4,0.6-2.4,1.8-2.4,3c0,1.4,1.2,2.4,3,2.4c1.4,0,2.7-0.6,3.7-1.6c1-1.2,1.5-2.8,1.5-4.7
			c0-0.4,0-0.8,0-1.2h32.9c-0.5,1.8-1.3,4.1-1.9,5.7l-3.2-3.1l-3.4,3.2h-22.4v1.2v0.4h21.9c-1.4,1.9-3.7,4.2-5.4,5.9l-4.5-0.3v4.9
			h-21.5v0.4v1.2h21.5v8.5c0,0.7-0.3,1-1.1,1h-9v0.8h0c5.2,0.5,7.4,1.4,7.4,5.5v0.1l0.1,0c3.5-0.3,5.7-1.1,7-2.4
			c1.3-1.4,1.4-3.1,1.4-4.9v-8.5h19.1c1.5,0,2.2-0.2,2.6-0.9l0,0l-6.2-4.6l-3.1,4h-12.5v-3.9c1.1-0.5,8.8-3.9,11.2-5.3
			c1.2-0.1,1.8-0.2,2.2-0.7l0,0l-1.5-1.4c2.8-1.4,6.1-3.6,7.9-5.2C332.6,22,333.3,21.9,333.7,21.4z"/>
	</g>
	<g>
		<g>
			<g>
				<path class="st1" d="M20.5,75.3c0.4-0.5,1.2-0.6,1.7-0.2c0.5,0.4,0.6,1.2,0.2,1.7c-0.4,0.5-1.2,0.6-1.7,0.2
					C20.2,76.6,20.1,75.9,20.5,75.3z"/>
				<path class="st1" d="M70.8,75.3c-0.4-0.5-1.2-0.6-1.7-0.2c-0.5,0.4-0.6,1.2-0.2,1.7c0.4,0.5,1.2,0.6,1.7,0.2
					C71.1,76.6,71.2,75.9,70.8,75.3z"/>
			</g>
			<path class="st1" d="M61,82.3c0,1.8,0.1,2.2-0.3,2.4c-0.1,0.1,0,0.2,0,0.3c0.1,0.1,0.1,0.1,0.2,0.1c0.2-0.1,0.5-0.3,0.8-0.4
				c0.4-0.2,0.8-0.4,1.2-0.5c0.1,0,0.1-0.1,0-0.2c-0.1-0.2-0.1-0.2-0.3-0.1c-0.3,0.1-0.6,0.2-0.7-0.1c-0.1-0.2-0.2-1.1-0.3-1.6
				c0.4-0.2,1.6-0.8,2.1-1c0.2,0.2,1,1,1.1,1.2c0.1,0.2-0.1,0.4-0.4,0.6c-0.1,0.1-0.1,0.1,0,0.3c0.1,0.1,0.1,0.1,0.2,0.1
				c0.5-0.2,0.9-0.4,1.2-0.6c0.4-0.2,0.8-0.4,1.2-0.6c0.1,0,0.1-0.1,0-0.2c-0.1-0.1-0.1-0.2-0.2-0.2c-0.4,0.1-0.6,0-0.9-0.3
				c-0.8-0.7-1.2-1-2.2-2c-0.7-0.7-1.6-1.5-2.1-2c-0.1-0.1-0.1-0.2-0.2-0.1c-0.1,0-0.3,0.2-0.5,0.3c-0.2,0.1-0.4,0.2-0.6,0.3
				c-0.2,0.1-0.3,0.1-0.5,0.2c-0.1,0,0,0.2,0.1,0.3c0.1,0.1,0.1,0.1,0.3,0c0.2-0.1,0.6-0.1,0.6,0.4L61,82.3z M61.6,81.6
				c-0.1-0.8-0.2-2-0.2-2.8c0.3,0.3,1.2,1.2,2,1.9C62.8,81.1,62.2,81.4,61.6,81.6z"/>
			<path class="st1" d="M15.1,66.8c-0.4,0.1-0.7,0.4-2.7,1.9c-0.9,0.7-0.9,0.8-0.5,1.4c0.1,0.2,0.1,0.2,0,0.3
				c-0.2,0.1-0.2,0.1-0.3,0c-0.1-0.1-0.4-0.5-0.8-1c-0.2-0.3-0.5-0.6-0.7-0.8c-0.1-0.1,0-0.1,0.1-0.2c0.2-0.1,0.2-0.1,0.3,0
				c0.5,0.4,0.7,0.3,1.8-0.6c1.5-1.1,2-1.5,2.6-1.7c1.3-0.4,2.4,0.5,2.9,1.2c0.8,1.1,1.1,2.2,0.3,3.2c-0.3,0.3-0.6,0.6-2.3,1.8
				c-0.6,0.5-0.9,0.7-1,0.8c-0.4,0.3-0.2,0.5,0,0.8c0.1,0.1,0,0.1-0.1,0.2c-0.1,0.1-0.2,0.1-0.3,0c-0.3-0.4-0.6-0.8-0.9-1.2
				c-0.3-0.4-0.6-0.8-0.9-1.2c-0.1-0.1-0.1-0.2,0-0.2c0.2-0.1,0.2-0.1,0.3,0c0.3,0.4,0.5,0.5,0.8,0.4c0.3-0.2,1.7-1.2,2.1-1.5
				c0.9-0.7,1.3-1.1,1.4-1.6c0.1-0.4-0.2-1-0.4-1.3C16.8,67.3,16,66.4,15.1,66.8z"/>
			<path class="st1" d="M8.7,60.4c-0.4,0.2-1.2,0.6-1.4,0.8c-0.2,0.2-0.2,0.4,0.1,0.9c0,0.1,0,0.1-0.2,0.2c-0.1,0-0.2,0-0.2-0.1
				c-0.1-0.2-0.5-1-0.5-1.2c-0.1-0.2-0.5-1-0.6-1.1c0-0.1,0-0.1,0.2-0.2c0.1-0.1,0.2-0.1,0.2,0c0.3,0.5,0.5,0.7,1.4,0.4
				c0.5-0.2,2.5-1.1,3.7-1.6c0.2-0.1,0.8-0.4,1-0.5l0.1,0c0.1,0,0.1,0.1,0.5,0.3c0.1,0,0,0.1,0,0.2c-0.5,0.9-0.6,1.3-1.3,2.8
				c-0.1,0.3-0.9,2.1-1.2,2.8c0,0.1-0.1,0.3-0.3,0.6c0.4-0.2,1.2-0.5,1.4-0.7c2.5-1.1,2.6-1.2,2.6-1.6c0-0.1-0.2-0.5-0.2-0.6
				c0-0.1,0.1-0.1,0.2-0.1c0.1-0.1,0.2-0.1,0.2,0c0.1,0.2,0.3,0.8,0.6,1.3c0.1,0.2,0.5,1,0.5,1.1c0,0.1,0,0.1-0.1,0.2
				c-0.1,0.1-0.2,0.1-0.3,0c-0.3-0.5-0.4-0.7-1.4-0.3c-0.5,0.2-3.3,1.4-3.4,1.5c-0.7,0.3-0.8,0.6-0.6,1.2c0,0.1,0.1,0.2-0.1,0.2
				c-0.2,0.1-0.2,0-0.3-0.1c-0.1-0.1-0.2-0.6-0.4-0.8c-0.1-0.3-0.3-0.6-0.4-0.8c0-0.1-0.1-0.2,0-0.3c0.3-0.3,0.6-1,1-1.9
				c0.2-0.5,1.2-2.9,1.5-3.4L8.7,60.4z"/>
			<path class="st1" d="M6,57.2c-0.3,0.2-0.2,0.3-0.1,0.9c0,0.1,0,0.2-0.2,0.2c-0.2,0.1-0.2,0-0.3-0.1c-0.1-0.2-0.2-0.8-0.4-1.5
				c-0.1-0.5-0.3-1.1-0.4-1.4l0-0.2c0-0.1,0-0.1,0.1-0.2C5,54.9,5,54.9,5.1,55.1c0.2,0.5,0.3,0.6,0.9,0.6c0.3-0.1,1.5-0.4,2-0.5
				c1.3-0.4,2.2-0.6,2.6-0.8c0.3-0.1,0.4-0.2,0.4-0.6l-0.1-0.3c0-0.1,0-0.1,0.1-0.2c0.2,0,0.2-0.1,0.2,0c0.1,0.3,0.3,1.2,0.5,1.8
				c0.1,0.5,0.3,1,0.4,1.4c0,0.1,0,0.1-0.2,0.2c-0.2,0-0.2,0-0.3-0.2c-0.2-0.5-0.5-0.6-1.1-0.4c-0.8,0.2-2.1,0.5-2.9,0.7
				C7.2,56.8,6.2,57.1,6,57.2z"/>
			<path class="st1" d="M5.5,48.3c-0.3-0.1-0.9-0.2-1.1-0.2c-0.2,0-0.3,0.2-0.2,0.8C4.1,49,4.1,49,4,49c-0.2,0-0.3,0-0.3-0.1
				c0-0.2,0-0.6-0.1-1.2c-0.1-0.7-0.1-0.9-0.1-1c0-0.1,0-0.1,0.1-0.1c0.2,0,0.2,0,0.3,0.1c0.2,0.4,0.2,0.4,2,1
				c0.4,0.1,3.1,1,4.1,1.3c0.5,0.1,0.6,0.1,0.6,0.2c0.1,0.2,0.2,0.6,0.2,0.7c0,0.1,0,0.1-0.2,0.1c-0.3,0.1-1.5,0.7-2.5,1.2
				c-2.3,1.1-2.4,1.2-2.8,1.4c-0.6,0.4-0.7,0.6-0.7,0.8c0,0.1-0.1,0.1-0.2,0.1c-0.2,0-0.2,0-0.2-0.1c0-0.2-0.1-0.9-0.1-1.5
				c-0.1-0.5-0.1-1.2-0.2-1.3c0-0.1,0-0.1,0.2-0.1c0.2,0,0.2,0,0.2,0.2c0.1,0.3,0.1,0.5,0.4,0.5c0.2,0,1.1-0.4,1.4-0.6
				c0.8-0.4,2.2-1,3-1.4C7.9,49,6.7,48.6,5.5,48.3z"/>
			<path class="st1" d="M4.5,44.7c-0.5,0-0.5,0.2-0.6,0.6c0,0.2,0,0.2-0.2,0.1c-0.2,0-0.2,0-0.2-0.2c0-0.2,0.1-0.7,0.1-1.1
				c0.1-0.5,0.1-1,0.1-1.1c0-0.5,0.1-1,0.1-1.5c0-0.5,0.1-0.9,0.1-1.3C3.9,40,4,40,4.1,40c0.1,0,0.4,0.1,0.9,0.2
				c0.2,0,0.4,0.1,0.6,0.1c0.1,0,0.1,0.1,0.1,0.2c0,0.2-0.1,0.2-0.1,0.2c-0.9,0-1.1,0-1.2,1.5c0,0.2,0,0.8,0,0.9
				c0.1,0.1,0.3,0.1,0.4,0.1c0.6,0.1,1.3,0.1,1.9,0.1c0.2-1.9,0.1-2-0.4-2.1C6,41.2,6,41.2,6,41c0-0.1,0-0.2,0.1-0.2
				c0.2,0,0.8,0.1,0.9,0.1c0.2,0,1,0.1,1.2,0.1c0.1,0,0.1,0.1,0.1,0.2c0,0.1,0,0.2-0.2,0.2c-0.4,0-0.6,0-0.7,0.3
				c-0.1,0.3-0.2,0.8-0.2,1.7c0.4,0,1.7,0.1,2.1,0.1c0.4,0,0.6,0,0.6-0.8c0.1-1.6-0.2-1.7-1.2-2.2c-0.1,0-0.1-0.2,0-0.3
				c0-0.1,0.1-0.2,0.2-0.2c0.1,0,0.8,0.2,1.6,0.5c0.1,0,0.1,0.1,0.1,0.2c0,0.2-0.1,0.7-0.1,1.4c0,0.6-0.1,1.3-0.1,1.8
				c0,0.4,0,0.8-0.1,1.1c0,0.3,0,0.5,0,0.7c0,0.1,0,0.1-0.2,0.1c-0.2,0-0.2,0-0.2-0.3c0-0.5-0.3-0.6-0.7-0.6
				c-0.5-0.1-1.8-0.2-2.5-0.2C5.3,44.7,4.8,44.7,4.5,44.7z"/>
			<path class="st1" d="M8.8,34.6c0.8-0.2,1.9-0.5,2.5-0.7c0.8-0.4,0.9-0.8,0.9-1c0-0.1,0-0.1,0.2-0.1c0.2,0,0.2,0,0.2,0.2
				c0,0.2,0,0.5-0.1,0.8c-0.3,1.1-1.2,1.4-1.5,1.5c-0.7,0.3-1.5,0.5-2.2,0.5c-0.1,0.4-0.1,0.6-0.2,0.8c0.6,0.1,0.8,0.2,1.2,0.3
				c1.1,0.3,1.2,0.3,1.4-0.4c0-0.1,0.1-0.1,0.3-0.1c0.1,0,0.2,0,0.2,0.1c0,0.1-0.3,1.2-0.4,1.5c-0.2,0.6-0.3,1.2-0.4,1.4
				c0,0.1-0.1,0-0.2,0c-0.1,0-0.2-0.1-0.1-0.3c0.1-0.6-0.3-0.7-0.8-0.8c-0.8-0.3-2-0.6-2.8-0.8c-0.4-0.1-1.4-0.4-1.7-0.4
				c-0.3,0-0.3,0.1-0.5,0.5c-0.1,0.1-0.1,0.1-0.3,0.1c-0.2-0.1-0.2-0.1-0.1-0.2l0.3-1c0.3-1,0.4-1.9,0.5-2.3
				c0.4-1.4,1.3-1.8,2.3-1.6C8.7,33.2,8.8,34.3,8.8,34.6z M8.1,36.5c0.1-0.1,0.1-0.2,0.2-0.5c0.2-0.6,0.3-1.3-1-1.7
				c-1.5-0.4-1.7,0.5-1.9,1c-0.1,0.4,0,0.4,0.2,0.5L8.1,36.5z"/>
			<path class="st1" d="M9.4,26.1c0.4,0.2,0.7,0.3,0.8,0.3c0.2,0.1,0.1,0.3,0,0.4c-0.1,0.1-0.1,0.1-0.4,0c-0.4-0.1-1.1-0.2-1.6,0.8
				c-0.4,0.9,0.2,1.3,0.4,1.4c0.6,0.3,1.1-0.1,1.5-0.4c1-0.9,1.3-1.1,1.9-1.3c0.5-0.1,0.9,0,1.2,0.1c0.6,0.3,1,0.8,1.1,1.4
				c0.1,0.4,0.1,0.9-0.3,1.7c-0.2,0.3-0.5,0.9-0.7,1.1C13,32.1,13,32.1,13,32.2c0,0.1,0,0.2,0,0.2c0,0.1,0,0.1,0,0.2
				c-0.1,0.1-0.1,0.1-0.3,0c-0.3-0.1-1.5-0.5-1.6-0.6c-0.2-0.1-0.2-0.3-0.1-0.5c0-0.1,0.1-0.1,0.4-0.1c0.5,0.1,0.8,0.1,1.1,0
				c0.4-0.1,0.8-0.5,1-1c0.4-0.9-0.1-1.4-0.4-1.6c-0.5-0.2-1,0-1.4,0.3c-1.1,0.9-1.3,1.1-1.9,1.3c-0.3,0.1-0.7,0.1-1.3-0.1
				c-0.9-0.4-1.5-1.5-0.7-3.1c0.2-0.4,0.4-0.6,0.7-1.1c0.1-0.1,0.1-0.1,0.1-0.2c0,0,0-0.1,0-0.1c0,0,0-0.1,0-0.1
				c0-0.1,0.1-0.1,0.1-0.1L9.4,26.1z"/>
			<path class="st1" d="M10.8,23.6c-0.3-0.1-0.3,0-0.7,0.5c-0.1,0.1-0.1,0.1-0.3,0c-0.2-0.1-0.2-0.1-0.1-0.3
				c0.1-0.2,0.5-0.7,0.9-1.3c0.3-0.4,0.6-1,0.8-1.2l0.1-0.2c0.1-0.1,0.1-0.1,0.2,0c0.2,0.1,0.2,0.2,0.1,0.4c-0.3,0.5-0.3,0.7,0.2,1
				c0.2,0.2,1.3,0.9,1.7,1.2c1.1,0.8,2,1.3,2.3,1.5c0.3,0.1,0.5,0.2,0.7-0.2l0.2-0.3c0.1-0.1,0.1-0.1,0.2,0c0.2,0.1,0.2,0.1,0.1,0.2
				c-0.2,0.2-0.7,1-1,1.5c-0.3,0.5-0.5,0.8-0.8,1.2c0,0.1-0.1,0.1-0.2,0c-0.2-0.1-0.1-0.1,0-0.4c0.3-0.5,0.1-0.7-0.4-1.1
				c-0.6-0.5-1.8-1.2-2.5-1.7C12,24.2,11.1,23.6,10.8,23.6z"/>
			<path class="st1" d="M16.9,18.6c0.8,0.7,1.7,1.5,2,1.9c0.8,0.7,0.8,0.7,1.5,0.1c0.1-0.1,0.2-0.1,0.3,0c0.1,0.1,0.2,0.2,0.1,0.3
				c-0.1,0.1-0.2,0.2-0.4,0.4c-0.2,0.2-0.4,0.5-0.8,0.8c-0.3,0.3-0.5,0.5-0.6,0.7c-0.2,0.2-0.3,0.4-0.5,0.6c-0.1,0.1-0.1,0-0.2-0.1
				c-0.1-0.1-0.1-0.1-0.1-0.2c0.4-0.5,0.6-0.7,0.1-1.2c-0.3-0.3-1.7-1.6-2.1-1.9c-0.3-0.3-1.2-1.1-1.6-1.4c-1.1,1.3-1.2,1.4-0.8,2.1
				c0.2,0.3,0.2,0.3,0.1,0.4c-0.1,0.2-0.2,0.2-0.3,0.1c0,0-0.9-1.1-1-1.2c-0.2-0.2-0.2-0.3-0.1-0.4c0.1-0.1,0.1-0.1,0.2-0.2
				c0.3-0.2,1.4-1.4,1.7-1.7c0.2-0.2,2.1-2.3,2.2-2.5c0-0.1,0.1-0.1,0.1-0.2c0-0.1,0.1-0.1,0.2,0c0,0,0.5,0.7,0.6,0.9
				c0.1,0.1,0.4,0.5,0.5,0.6c0.1,0.1,0,0.1-0.1,0.3c-0.1,0.1-0.1,0.2-0.2,0.1c-0.6-0.5-0.7-0.6-0.9-0.4c-0.2,0.1-0.9,0.8-1.1,1.1
				L16.9,18.6z"/>
			<path class="st1" d="M28.6,8.2C28.8,8.6,29,8.9,29.1,9c0.1,0.1-0.1,0.3-0.2,0.3c-0.1,0-0.1,0-0.4-0.2c-0.3-0.3-0.8-0.8-1.7-0.3
				c-0.9,0.5-0.6,1.2-0.5,1.3c0.3,0.6,0.9,0.6,1.4,0.6c1.4-0.1,1.7-0.1,2.3,0.1c0.5,0.2,0.8,0.6,0.9,0.8c0.3,0.6,0.3,1.3,0,1.8
				c-0.2,0.3-0.4,0.7-1.2,1.2c-0.3,0.2-0.9,0.4-1.2,0.5c-0.5,0.2-0.5,0.2-0.6,0.2c-0.1,0-0.1,0.1-0.1,0.1c-0.1,0.1-0.1,0.1-0.1,0.1
				c-0.1,0.1-0.1,0-0.3-0.2c-0.2-0.3-0.8-1.3-0.9-1.4c-0.1-0.2,0-0.4,0.2-0.4c0.1-0.1,0.1,0,0.3,0.2c0.3,0.4,0.5,0.6,0.8,0.7
				c0.4,0.2,1,0.1,1.4-0.2c0.9-0.5,0.7-1.2,0.6-1.5C29.4,12.1,29,12,28.4,12c-1.4,0.1-1.7,0.1-2.2-0.1c-0.3-0.1-0.7-0.3-0.9-0.9
				C24.8,10.1,25,9,26.5,8.2C27,8,27.2,7.9,27.7,7.7c0.1,0,0.2,0,0.2-0.1c0,0,0.1,0,0.1-0.1c0,0,0.1-0.1,0.1-0.1c0.1,0,0.1,0,0.1,0
				L28.6,8.2z"/>
			<path class="st1" d="M37.8,5.3C37.9,5.7,38,6,38,6.1c0,0.2-0.2,0.2-0.3,0.3c-0.1,0-0.1,0-0.3-0.3c-0.2-0.4-0.6-1-1.6-0.7
				c-1,0.2-0.8,1-0.8,1.2c0.1,0.6,0.7,0.8,1.2,0.9C37.6,7.7,38,7.7,38.5,8c0.4,0.3,0.6,0.7,0.7,1c0.1,0.6,0,1.3-0.4,1.8
				c-0.2,0.3-0.6,0.6-1.5,0.8c-0.3,0.1-1,0.2-1.3,0.2c-0.5,0-0.5,0-0.6,0.1c-0.1,0-0.1,0.1-0.2,0.1c-0.1,0.1-0.1,0.1-0.1,0.1
				c-0.1,0-0.1,0-0.2-0.3c-0.1-0.3-0.5-1.5-0.5-1.6c0-0.2,0.1-0.3,0.3-0.4c0.1,0,0.1,0,0.3,0.3c0.2,0.4,0.4,0.7,0.7,0.9
				c0.4,0.2,0.9,0.3,1.4,0.2c1-0.2,1-1,0.9-1.3c-0.1-0.6-0.6-0.8-1.1-0.9c-1.4-0.3-1.7-0.3-2.2-0.6c-0.2-0.2-0.6-0.5-0.7-1.1
				c-0.2-1,0.2-2.1,1.9-2.5c0.5-0.1,0.7-0.1,1.3-0.2c0.1,0,0.2,0,0.2,0c0,0,0.1,0,0.1,0c0.1,0,0.1,0,0.1,0c0.1,0,0.1,0,0.1,0.1
				L37.8,5.3z"/>
			<path class="st1" d="M40.9,4.9c-0.1-0.4-0.3-0.5-0.7-0.5c-0.2,0-0.2,0-0.2-0.2C40,4,40,4,40.2,4c0.2,0,0.7,0,1.1-0.1
				c0.5,0,1,0,1.1-0.1c0.5,0,1-0.1,1.5-0.1c0.5,0,0.9-0.1,1.3-0.1c0.1,0,0.1,0.1,0.1,0.2c0,0.1,0,0.4,0,0.9c0,0.2,0,0.4,0,0.6
				c0,0.1-0.1,0.1-0.2,0.1c-0.2,0-0.2,0-0.2-0.1c-0.2-0.9-0.2-1.1-1.7-1c-0.2,0-0.8,0.1-0.9,0.2c-0.1,0.1-0.1,0.3,0,0.5
				c0,0.6,0.1,1.3,0.1,1.9c1.9-0.1,2-0.2,2-0.7c0-0.3,0-0.3,0.2-0.3c0.1,0,0.2,0,0.2,0.1c0,0.2,0,0.8,0,0.9c0,0.2,0.1,1,0.1,1.2
				c0,0.1,0,0.2-0.2,0.2c-0.1,0-0.2,0-0.2-0.1c-0.1-0.4-0.1-0.6-0.4-0.7c-0.4-0.1-0.8,0-1.7,0c0,0.4,0.1,1.7,0.2,2.1
				c0,0.4,0.1,0.6,0.8,0.5c1.6-0.1,1.7-0.4,2-1.5c0-0.1,0.2-0.1,0.3-0.1c0.1,0,0.2,0.1,0.2,0.1c0,0.1-0.1,0.9-0.3,1.7
				c0,0.1-0.1,0.2-0.2,0.2c-0.2,0-0.8,0-1.4,0.1c-0.6,0-1.4,0.1-1.8,0.1c-0.4,0-0.8,0.1-1.1,0.1c-0.3,0-0.5,0.1-0.7,0.1
				c-0.1,0-0.1,0-0.1-0.2c0-0.2,0-0.2,0.3-0.2c0.5-0.1,0.5-0.4,0.5-0.8c0-0.5-0.1-1.8-0.1-2.5C40.9,5.7,40.9,5.2,40.9,4.9z"/>
			<path class="st1" d="M51.6,10.8c-0.7,0.1-1.4,0-2,0c-0.5-0.1-1.3-0.2-1.6-0.2c-0.4,0-1.1-0.1-1.2-0.1c-0.1,0-0.1-0.1-0.1-0.2
				c0-0.2,0-0.2,0.2-0.2c0.5,0,0.7,0,0.8-0.9c0.1-0.8,0.3-2.1,0.4-2.9c0.1-1,0.1-1.2,0.1-1.5c0-0.5-0.1-0.5-0.6-0.6
				c-0.1,0-0.1,0-0.1-0.2c0-0.1,0-0.2,0.1-0.2c0.1,0,0.1,0,0.3,0.1c0.1,0,0.3,0.1,0.6,0.1c0.3,0,0.9,0.1,1.4,0.2
				c0.5,0.1,1.1,0.1,1.2,0.1c2.1,0.3,3.3,1.5,3.1,3.7C54,10.4,52,10.8,51.6,10.8z M52.2,5.2c-0.2-0.3-0.7-0.5-1.5-0.7
				C50,4.4,49.9,4.6,49.8,5c-0.1,0.3-0.4,2.5-0.4,3.1c0,0.3-0.2,1.5-0.2,1.8c0,0.3,0.4,0.4,0.8,0.5c0.5,0.1,0.9,0,1.4-0.2
				c0.8-0.4,1.3-1.2,1.4-2.5C52.9,7.1,53,5.9,52.2,5.2z"/>
			<path class="st1" d="M57.2,6.2c0-0.3-0.1-0.3-0.7-0.6c-0.1-0.1-0.1-0.1-0.1-0.3c0-0.2,0.1-0.2,0.2-0.1c0.2,0.1,0.8,0.3,1.5,0.5
				c0.5,0.2,1.1,0.3,1.4,0.4l0.2,0.1c0.1,0,0.1,0.1,0.1,0.2c-0.1,0.3-0.1,0.3-0.3,0.2c-0.5-0.1-0.7-0.1-0.9,0.4
				c-0.1,0.3-0.5,1.5-0.6,1.9c-0.4,1.3-0.7,2.2-0.8,2.6c0,0.3,0,0.5,0.4,0.6l0.3,0.1c0.1,0,0.1,0.1,0,0.2c0,0.2-0.1,0.2-0.2,0.2
				c-0.3-0.1-1.2-0.4-1.8-0.6c-0.5-0.2-1-0.3-1.4-0.4c-0.1,0-0.1-0.1,0-0.3c0-0.2,0.1-0.2,0.3-0.1c0.5,0.1,0.7-0.1,1-0.7
				c0.3-0.7,0.7-2,0.9-2.8C56.9,7.4,57.2,6.4,57.2,6.2z"/>
			<path class="st1" d="M65.1,9.5c-0.2,0.3-0.3,0.7-0.3,0.8c-0.1,0.1-0.3,0.1-0.4,0c-0.1-0.1-0.1-0.1,0-0.4c0.1-0.4,0.2-1.1-0.8-1.6
				c-0.9-0.4-1.3,0.2-1.3,0.4c-0.3,0.6,0.1,1.1,0.4,1.4c0.9,1.1,1.1,1.3,1.3,1.9c0.1,0.5,0,0.9-0.1,1.2c-0.3,0.6-0.8,1-1.4,1.1
				c-0.4,0.1-0.9,0.1-1.7-0.3c-0.3-0.1-0.9-0.5-1.1-0.6c-0.4-0.3-0.4-0.3-0.5-0.4c-0.1,0-0.2,0-0.2,0c-0.1,0-0.1,0-0.2,0
				c-0.1,0-0.1-0.1,0-0.4c0.1-0.3,0.6-1.4,0.6-1.6c0.1-0.2,0.3-0.2,0.4-0.1c0.1,0,0.1,0.1,0.1,0.4c-0.1,0.5-0.1,0.8,0,1.1
				c0.1,0.4,0.5,0.8,1,1c0.9,0.4,1.4-0.1,1.6-0.4c0.2-0.5,0-0.9-0.3-1.4c-0.9-1.1-1.1-1.3-1.2-1.9c-0.1-0.3-0.2-0.7,0.1-1.2
				c0.4-0.9,1.5-1.5,3.1-0.7C64.4,8,64.6,8.1,65,8.4c0.1,0.1,0.1,0.1,0.2,0.1c0,0,0.1,0,0.1,0c0.1,0,0.1,0,0.1,0c0,0,0.1,0.1,0,0.1
				L65.1,9.5z"/>
			<path class="st1" d="M73,15c-0.2,0.3-0.4,0.6-0.5,0.7c-0.1,0.1-0.3,0-0.4-0.1c-0.1-0.1-0.1-0.1,0.1-0.4c0.2-0.4,0.4-1-0.4-1.7
				c-0.8-0.6-1.3-0.1-1.4,0.1C70,14,70.2,14.6,70.4,15c0.6,1.2,0.8,1.6,0.8,2.1c0,0.5-0.2,0.9-0.4,1.2c-0.4,0.5-1,0.8-1.6,0.8
				c-0.4,0-0.9-0.1-1.6-0.7c-0.3-0.2-0.7-0.6-0.9-0.9c-0.4-0.4-0.4-0.4-0.4-0.5C66.2,17,66.1,17,66.1,17C66,17,66,17,66,17
				c-0.1-0.1-0.1-0.1,0.1-0.3c0.2-0.3,0.9-1.3,0.9-1.4c0.2-0.2,0.3-0.1,0.5,0c0.1,0.1,0.1,0.1,0,0.4c-0.2,0.4-0.3,0.7-0.3,1.1
				c0,0.4,0.3,0.9,0.7,1.2c0.8,0.7,1.4,0.2,1.6-0.1c0.3-0.4,0.2-0.9,0-1.4c-0.6-1.3-0.8-1.6-0.8-2.1c0-0.3,0-0.7,0.4-1.2
				c0.6-0.8,1.8-1.1,3.2,0c0.4,0.3,0.5,0.5,0.9,0.9c0.1,0.1,0.1,0.1,0.2,0.2c0,0,0.1,0,0.1,0c0,0,0.1,0.1,0.1,0.1
				c0.1,0,0.1,0.1,0,0.1L73,15z"/>
			<path class="st1" d="M78.4,24.8c0.5-0.3,1.5-0.9,1.9-1.1c0.4-0.3,0.3-0.5,0.2-0.8c-0.1-0.2-0.1-0.2,0-0.3
				c0.2-0.1,0.3-0.1,0.3-0.1c0.1,0.1,0.2,0.3,0.3,0.5c0.1,0.2,0.2,0.4,0.3,0.6c0.2,0.2,0.3,0.6,0.5,0.9c0.2,0.3,0.4,0.6,0.5,0.8
				c0.5,0.9,0.7,1.6,0.3,2.3c-0.1,0.3-0.4,0.6-0.8,0.8c-0.5,0.3-1.2,0.5-2.1,0c-0.4-0.2-0.7-0.5-1.1-1.2c-0.2-0.4-0.3-0.5-0.4-0.7
				c-0.8,0.4-1.3,0.8-1.5,1c-0.3,0.2-0.4,0.3,0,0.9c0,0.1,0,0.2-0.1,0.2c-0.2,0.1-0.2,0.1-0.3,0c-0.1-0.2-0.4-0.8-0.8-1.4
				c-0.3-0.5-0.6-1.1-0.7-1.2c-0.1-0.1,0-0.2,0.1-0.3c0.2-0.1,0.2,0,0.3,0.1c0.2,0.3,0.4,0.4,0.9,0.2c0.3-0.1,1-0.5,1.6-0.9
				L78.4,24.8z M78.9,26.7c0.5,0.9,1.3,0.9,2.2,0.4c1.2-0.7,0.9-1.5,0.6-2c-0.2-0.4-0.3-0.4-0.4-0.3c-0.1,0.1-2.2,1.3-2.6,1.5
				C78.7,26.4,78.8,26.5,78.9,26.7z"/>
			<path class="st1" d="M83.7,29.8c0.2-0.2,0.2-0.3,0-0.9c-0.1-0.1,0-0.2,0.2-0.2c0.2-0.1,0.2-0.1,0.3,0.1c0.1,0.2,0.3,0.8,0.6,1.4
				c0.2,0.5,0.4,1.1,0.5,1.3l0.1,0.2c0,0.1,0,0.1-0.1,0.2C85,32,84.9,32,84.8,31.8c-0.2-0.5-0.4-0.6-0.9-0.5
				c-0.3,0.1-1.5,0.6-1.9,0.7c-1.3,0.5-2.2,0.9-2.5,1.1c-0.3,0.1-0.4,0.3-0.3,0.7l0.1,0.3c0.1,0.1,0,0.1-0.1,0.2
				c-0.2,0.1-0.2,0.1-0.3,0c-0.1-0.3-0.4-1.1-0.7-1.7c-0.2-0.5-0.4-0.9-0.5-1.3c0-0.1,0-0.1,0.2-0.2c0.2-0.1,0.2,0,0.3,0.2
				c0.2,0.5,0.5,0.5,1.2,0.3c0.7-0.2,2-0.8,2.7-1.1C82.5,30.3,83.5,30,83.7,29.8z"/>
			<path class="st1" d="M85.1,34.4c0.4-0.1,0.5-0.4,0.4-0.7c0-0.2,0-0.2,0.2-0.2c0.2-0.1,0.2,0,0.3,0.2c0,0.2,0.1,0.6,0.3,1.1
				c0.1,0.5,0.2,0.9,0.2,1.1c0.1,0.5,0.2,1,0.4,1.4c0.1,0.5,0.2,0.9,0.3,1.3c0,0.1-0.1,0.1-0.2,0.2c-0.1,0-0.4,0-0.9,0.1
				c-0.2,0-0.4,0-0.6,0.1c-0.1,0-0.1,0-0.2-0.2c0-0.2,0-0.2,0.1-0.2c0.9-0.3,1-0.4,0.7-1.8c-0.1-0.2-0.2-0.8-0.3-0.8
				c-0.1,0-0.3,0-0.5,0c-0.6,0.1-1.2,0.3-1.8,0.4c0.4,1.8,0.5,1.9,1,1.9c0.3,0,0.3,0,0.3,0.2c0,0.1,0,0.2-0.1,0.2
				c-0.1,0-0.8,0.2-0.9,0.2c-0.2,0-1,0.2-1.1,0.3c-0.1,0-0.2,0-0.2-0.1c0-0.1-0.1-0.2,0.1-0.2c0.4-0.1,0.6-0.2,0.6-0.5
				c0-0.4-0.1-0.8-0.3-1.7c-0.4,0.1-1.7,0.4-2,0.5c-0.4,0.1-0.5,0.2-0.4,0.9c0.4,1.6,0.7,1.6,1.8,1.7c0.1,0,0.1,0.1,0.1,0.3
				c0,0.1-0.1,0.2-0.1,0.2c-0.1,0-0.9,0.1-1.7,0c-0.1,0-0.2,0-0.2-0.2c0-0.2-0.2-0.7-0.3-1.3c-0.1-0.6-0.3-1.3-0.4-1.8
				c-0.1-0.4-0.2-0.7-0.3-1c-0.1-0.3-0.1-0.5-0.2-0.7c0-0.1,0-0.1,0.2-0.2c0.2,0,0.2,0,0.3,0.2c0.2,0.5,0.4,0.5,0.8,0.4
				c0.5-0.1,1.8-0.4,2.4-0.5C84.4,34.6,84.9,34.5,85.1,34.4z"/>
			<path class="st1" d="M85.3,47c0.4,0,1.3,0,1.6-0.2c0.2-0.1,0.3-0.3,0.3-0.8c0-0.1,0-0.1,0.2-0.1c0.1,0,0.2,0,0.2,0.2
				c0,0.2,0,1.1,0,1.3c0,0.2,0,1.1,0,1.3c0,0.1,0,0.1-0.2,0.1c-0.2,0-0.2,0-0.2-0.1c-0.1-0.6-0.1-0.9-1.1-0.9c-0.5,0-2.7,0-4,0
				c-0.2,0-0.9,0-1.1,0H81c-0.1,0-0.1-0.1-0.3-0.5c0-0.1,0-0.1,0.1-0.2c0.8-0.6,1.1-0.9,2.2-2c0.2-0.2,1.7-1.6,2.2-2.1
				c0.1-0.1,0.3-0.3,0.5-0.5c-0.5,0-1.3,0-1.6,0c-2.7,0.1-2.9,0.1-3,0.5c0,0.1,0,0.6,0,0.7c0,0-0.1,0-0.2,0c-0.1,0-0.2,0-0.2-0.1
				c0-0.2,0-0.8,0-1.4c0-0.2,0-1.1-0.1-1.2c0-0.1,0-0.1,0.2-0.1c0.2,0,0.3,0,0.3,0.1c0.1,0.6,0.1,0.8,1.1,0.8c0.6,0,3.6,0,3.8,0
				c0.8,0,1-0.3,1-0.9c0-0.1,0-0.1,0.2-0.1c0.2,0,0.2,0.1,0.2,0.2c0,0.2,0,0.6,0,0.9c0,0.3,0.1,0.7,0.1,0.9c0,0.1,0,0.2-0.1,0.3
				c-0.4,0.2-0.9,0.7-1.6,1.4c-0.5,0.4-2.3,2.2-2.7,2.6L85.3,47z"/>
			<path class="st1" d="M84.4,53.3c-1.1-0.2-2.2-0.4-2.7-0.5c-1-0.2-1.1-0.1-1.3,0.8c0,0.1-0.1,0.1-0.2,0.1c-0.1,0-0.2-0.1-0.2-0.2
				c0-0.1,0.1-0.3,0.1-0.6c0.1-0.3,0.1-0.6,0.2-1.1c0.1-0.3,0.1-0.7,0.1-0.9c0-0.3,0.1-0.5,0.1-0.7c0-0.1,0.1-0.1,0.2,0
				c0.1,0,0.2,0,0.2,0.1c-0.1,0.7-0.1,0.9,0.6,1.1c0.4,0.1,2.3,0.4,2.8,0.5c0.4,0.1,1.6,0.3,2.1,0.3c0.3-1.7,0.2-1.9-0.5-2.2
				c-0.3-0.1-0.3-0.1-0.3-0.3c0-0.2,0.1-0.3,0.2-0.3c0,0,1.3,0.4,1.5,0.5c0.2,0.1,0.3,0.1,0.3,0.2c0,0.1-0.1,0.1-0.1,0.3
				c-0.1,0.3-0.4,1.9-0.5,2.4c0,0.2-0.5,3.1-0.5,3.3c0,0.1,0,0.2,0,0.2c0,0.1-0.1,0.1-0.1,0.1c-0.1,0-0.8-0.3-1-0.4
				c-0.2,0-0.7-0.2-0.7-0.3c-0.1-0.1-0.1-0.1-0.1-0.3c0-0.1,0-0.2,0.2-0.2c0.8,0.1,0.9,0.1,1-0.1c0.1-0.3,0.3-1.2,0.4-1.5L84.4,53.3
				z"/>
			<path class="st1" d="M85,58.2c0.3,0,0.3-0.1,0.6-0.7c0.1-0.1,0.1-0.1,0.3-0.1c0.2,0.1,0.2,0.1,0.1,0.2c-0.1,0.2-0.3,0.8-0.5,1.5
				c-0.2,0.5-0.3,1.1-0.4,1.4L85,60.7c0,0.1-0.1,0.1-0.2,0.1c-0.2-0.1-0.3-0.1-0.2-0.3c0.2-0.5,0.1-0.7-0.4-0.9
				c-0.3-0.1-1.5-0.5-1.9-0.7c-1.3-0.4-2.2-0.7-2.6-0.8c-0.3-0.1-0.5,0-0.6,0.3l-0.1,0.3c0,0.1-0.1,0.1-0.2,0.1
				c-0.2-0.1-0.2-0.1-0.2-0.2c0.1-0.3,0.4-1.1,0.6-1.7c0.2-0.5,0.3-0.9,0.4-1.3c0-0.1,0.1-0.1,0.3,0c0.2,0.1,0.2,0.1,0.1,0.4
				c-0.1,0.5,0.1,0.7,0.7,1c0.7,0.3,2,0.7,2.8,1C83.7,57.9,84.7,58.2,85,58.2z"/>
			<path class="st1" d="M79,69.8c0.4,0.3,0.6,0.1,0.8-0.2c0.1-0.1,0.1-0.1,0.3,0c0.2,0.1,0.1,0.2,0,0.3c-0.1,0.1-0.4,0.5-0.7,0.9
				c-0.3,0.4-0.6,0.7-0.7,0.9c-0.3,0.4-0.6,0.8-0.9,1.2c-0.3,0.4-0.6,0.7-0.8,1c-0.1,0.1-0.1,0-0.2,0c-0.1-0.1-0.3-0.3-0.6-0.6
				c-0.1-0.1-0.3-0.3-0.4-0.4c-0.1-0.1-0.1-0.1,0-0.2c0.1-0.1,0.1-0.1,0.2-0.1c0.8,0.5,0.9,0.6,1.9-0.6c0.1-0.2,0.5-0.6,0.5-0.8
				c0-0.1-0.2-0.2-0.3-0.3c-0.5-0.4-1-0.8-1.5-1.2c-1.2,1.5-1.2,1.6-0.8,2c0.2,0.2,0.2,0.2,0.1,0.4c-0.1,0.1-0.1,0.1-0.2,0.1
				c-0.1-0.1-0.6-0.5-0.7-0.6c-0.1-0.1-0.8-0.6-0.9-0.7c-0.1-0.1-0.1-0.1,0-0.2c0.1-0.1,0.1-0.2,0.2-0.1c0.3,0.2,0.5,0.3,0.8,0.1
				c0.3-0.2,0.6-0.6,1.2-1.3c-0.3-0.2-1.4-1.1-1.6-1.3c-0.3-0.2-0.5-0.3-0.9,0.3c-1,1.2-0.8,1.5-0.2,2.4c0.1,0.1,0,0.2-0.1,0.2
				c-0.1,0.1-0.2,0.1-0.2,0c-0.1-0.1-0.6-0.7-1.1-1.3c-0.1-0.1-0.1-0.2,0-0.3c0.1-0.1,0.5-0.6,0.9-1.1c0.4-0.5,0.9-1.1,1.1-1.4
				c0.2-0.3,0.5-0.6,0.6-0.8c0.2-0.2,0.3-0.4,0.4-0.6c0.1-0.1,0.1-0.1,0.2,0c0.2,0.1,0.1,0.1,0,0.3c-0.3,0.4-0.1,0.6,0.2,0.9
				c0.4,0.4,1.4,1.2,1.9,1.6C78.3,69.4,78.7,69.7,79,69.8z"/>
			<path class="st1" d="M31.1,78.9c-0.2,0.3-0.3,0.7-0.3,0.8c-0.1,0.1-0.3,0.1-0.4,0c-0.1-0.1-0.1-0.1,0-0.4
				c0.1-0.4,0.2-1.1-0.8-1.6c-0.9-0.5-1.3,0.2-1.4,0.3c-0.3,0.6,0.1,1.1,0.4,1.5c0.8,1.1,1.1,1.4,1.2,1.9c0.1,0.5,0,0.9-0.2,1.2
				c-0.3,0.6-0.8,1-1.4,1.1c-0.4,0.1-0.9,0.1-1.7-0.4c-0.3-0.2-0.8-0.5-1.1-0.7c-0.4-0.3-0.4-0.3-0.5-0.4c-0.1,0-0.2,0-0.2,0
				c-0.1,0-0.1,0-0.2,0c-0.1-0.1-0.1-0.1,0-0.4c0.1-0.3,0.6-1.4,0.6-1.6c0.1-0.2,0.3-0.2,0.5-0.1c0.1,0,0.1,0.1,0,0.4
				c-0.1,0.5-0.2,0.8-0.1,1.1c0.1,0.4,0.5,0.8,1,1.1c0.9,0.5,1.4-0.1,1.6-0.4c0.3-0.5,0.1-0.9-0.3-1.4c-0.9-1.1-1.1-1.4-1.2-1.9
				c-0.1-0.3-0.1-0.7,0.2-1.3c0.5-0.9,1.5-1.4,3.1-0.6c0.4,0.2,0.6,0.4,1.1,0.7c0.1,0.1,0.1,0.1,0.2,0.1c0,0,0.1,0,0.1,0
				c0,0,0.1,0,0.1,0c0.1,0,0.1,0.1,0,0.1L31.1,78.9z"/>
			<path class="st1" d="M36.2,79.6c2.1,0.6,3,2.4,2.5,4.3c-0.4,1.3-1.7,3.3-4.6,2.5c-2.4-0.7-3-2.6-2.5-4.4
				C32.3,79.4,34.7,79.2,36.2,79.6z M34.4,85.8c1,0.3,2.1-0.2,2.7-2c0.5-1.8-0.1-3.4-1.3-3.7c-0.5-0.1-1-0.1-1.4,0.1
				c-0.8,0.4-1.2,1.5-1.3,1.9C32.6,84.1,33.3,85.5,34.4,85.8z"/>
			<path class="st1" d="M40.9,83.9c0-0.6,0.1-1.7,0.1-2.2c0-0.5-0.3-0.5-0.6-0.6c-0.2,0-0.3,0-0.3-0.2c0-0.2,0-0.3,0.1-0.3
				c0.1,0,0.3,0,0.5,0.1c0.2,0,0.4,0.1,0.7,0.1c0.3,0,0.6,0,1,0c0.4,0,0.7,0,1,0.1c1,0.1,1.7,0.3,2,1c0.1,0.3,0.3,0.6,0.2,1.1
				c0,0.6-0.3,1.3-1.2,1.8c-0.4,0.2-0.9,0.3-1.6,0.2c-0.4,0-0.6-0.1-0.8-0.1c0,0.9-0.1,1.5-0.1,1.8c0,0.3,0,0.5,0.8,0.6
				c0.1,0,0.1,0.1,0.1,0.2c0,0.2,0,0.2-0.1,0.2c-0.3,0-0.9-0.1-1.6-0.1c-0.5,0-1.2-0.1-1.4-0.1c-0.2,0-0.2-0.1-0.2-0.2
				c0-0.2,0.1-0.2,0.3-0.2c0.4,0,0.6-0.2,0.7-0.7c0.1-0.3,0.1-1.1,0.2-1.8L40.9,83.9z M42.7,84.6c1,0.1,1.5-0.6,1.5-1.6
				c0.1-1.4-0.7-1.6-1.3-1.6c-0.4,0-0.5,0-0.5,0.2c0,0.1-0.2,2.5-0.2,2.9C42.4,84.5,42.5,84.5,42.7,84.6z"/>
			<path class="st1" d="M49,84.5c0.2,1.6,0.3,2.1,0.4,2.5c0.1,0.3,0.3,0.3,0.8,0.2c0.1,0,0.1,0.1,0.1,0.2c0,0.1,0,0.2-0.1,0.2
				c-0.1,0-0.5,0.1-0.9,0.1c-0.4,0-0.7,0.1-0.8,0.1c-0.3,0-0.7,0.1-0.9,0.1c-0.2,0-0.4,0.1-0.5,0.1c-0.1,0-0.1-0.1-0.1-0.2
				c0-0.2,0.1-0.2,0.2-0.2c0.6-0.1,0.6-0.6,0.5-1.3c0-0.3-0.2-2.1-0.3-2.9c-0.1-0.8-0.2-1.2-0.3-1.4c-0.1-0.3-0.3-0.3-0.6-0.3
				c-0.2,0-0.3,0-0.3-0.1c0-0.2,0-0.3,0.1-0.3c0.1,0,1-0.1,1.5-0.2c0.4,0,1-0.1,1.4-0.2c0.1,0,0.1,0,0.1,0.1c0,0.3,0,0.3-0.2,0.3
				c-0.6,0.1-0.6,0.6-0.5,1.1c0.1,0.7,0.1,1.1,0.2,1.5l3.1-0.4c-0.1-0.5-0.1-0.9-0.2-1.5c-0.1-0.8-0.2-1-0.9-0.9
				c-0.1,0-0.1,0-0.1-0.1c0-0.3,0-0.3,0.1-0.3c0.4-0.1,1-0.1,1.4-0.1c0.6-0.1,1.4-0.2,1.6-0.2c0.1,0,0.1,0.1,0.1,0.2
				c0,0.2,0,0.2-0.2,0.3c-0.6,0.1-0.7,0.4-0.6,1.1l0.5,3.7c0.1,0.7,0.2,1.2,0.5,1.2c0.5,0,0.6,0,0.6,0.1c0,0.2,0.1,0.4-0.1,0.4
				c-0.1,0-0.2,0-0.5,0c-0.3,0-0.6,0.1-0.9,0.1c-0.1,0-0.5,0.1-0.8,0.1c-0.4,0.1-0.7,0.1-0.9,0.1c-0.1,0-0.1-0.1-0.2-0.2
				c0-0.1,0-0.2,0.2-0.2c0.1,0,0.6-0.1,0.6-0.7c0-0.4-0.1-1.5-0.2-2.2L49,84.5z"/>
			<path class="st1" d="M55.4,80.4c-0.2-0.3-0.3-0.2-0.9-0.1c-0.1,0-0.1,0-0.2-0.2c-0.1-0.2,0-0.2,0.1-0.3c0.2-0.1,0.8-0.2,1.5-0.4
				c0.5-0.2,1.1-0.4,1.4-0.5l0.2-0.1c0.1,0,0.1,0,0.1,0.1c0.1,0.3,0.1,0.3-0.1,0.4c-0.5,0.2-0.6,0.3-0.5,0.9c0.1,0.3,0.4,1.5,0.6,2
				c0.4,1.3,0.7,2.2,0.9,2.6c0.1,0.3,0.3,0.4,0.6,0.3l0.3-0.1c0.1,0,0.1,0,0.2,0.1c0.1,0.2,0.1,0.2,0,0.3c-0.3,0.1-1.2,0.3-1.8,0.5
				c-0.5,0.2-1,0.3-1.3,0.4c-0.1,0-0.1,0-0.2-0.2c-0.1-0.2,0-0.2,0.2-0.3c0.5-0.2,0.6-0.5,0.4-1.1c-0.2-0.7-0.6-2.1-0.8-2.8
				C55.9,81.6,55.6,80.7,55.4,80.4z"/>
			<path class="st1" d="M72.8,19.5c-1.7,0.5-2.1,0.6-2.4,0.3c-0.1-0.1-0.2,0-0.3,0.1c-0.1,0.1-0.1,0.1,0,0.2
				c0.1,0.1,0.4,0.4,0.6,0.6c0.3,0.3,0.5,0.6,0.8,1c0.1,0.1,0.2,0,0.2,0c0.2-0.1,0.2-0.1,0.1-0.3c-0.2-0.2-0.3-0.5-0.1-0.7
				c0.2-0.2,1-0.4,1.5-0.6c0.3,0.3,1.2,1.4,1.5,1.8c-0.1,0.3-0.7,1.3-0.9,1.4c-0.2,0.2-0.4,0-0.6-0.2c-0.1-0.1-0.2,0-0.3,0.1
				c-0.1,0.1-0.1,0.1,0,0.2c0.3,0.4,0.6,0.7,0.9,1c0.3,0.4,0.6,0.7,0.9,1.1c0.1,0.1,0.1,0,0.2-0.1c0.1-0.1,0.2-0.1,0.1-0.2
				c-0.2-0.3-0.2-0.5,0.1-1c0.5-0.9,0.7-1.3,1.4-2.6c0.5-0.9,1-1.9,1.5-2.5c0.1-0.1,0.1-0.2,0.1-0.2c-0.1-0.1-0.3-0.2-0.4-0.4
				c-0.2-0.2-0.3-0.4-0.4-0.5c-0.1-0.2-0.2-0.3-0.3-0.4c0-0.1-0.2,0-0.3,0.1c-0.1,0.1-0.1,0.1,0,0.3c0.1,0.2,0.3,0.5-0.2,0.7
				L72.8,19.5z M73.6,19.9c0.7-0.2,1.9-0.7,2.6-0.9c-0.2,0.3-0.8,1.4-1.4,2.4C74.4,20.9,74,20.4,73.6,19.9z"/>
			<path class="st1" d="M80.1,61.4c-1.1-1.4-1.3-1.7-1.2-2.1c0-0.1-0.1-0.1-0.2-0.2c-0.1-0.1-0.2-0.1-0.2,0
				c-0.1,0.2-0.3,0.5-0.4,0.8c-0.2,0.4-0.4,0.7-0.6,1.1c-0.1,0.1,0,0.1,0.1,0.2c0.2,0.1,0.2,0.1,0.3-0.1c0.2-0.2,0.3-0.5,0.6-0.4
				c0.2,0.1,0.8,0.8,1.1,1.2c-0.2,0.4-0.8,1.6-1.1,2c-0.3,0-1.4-0.2-1.6-0.3c-0.3-0.1-0.2-0.4-0.1-0.7c0-0.1,0-0.2-0.2-0.2
				c-0.1-0.1-0.2-0.1-0.2,0.1c-0.2,0.4-0.4,0.8-0.6,1.2c-0.2,0.4-0.4,0.8-0.7,1.2c-0.1,0.1,0,0.1,0.1,0.2c0.1,0.1,0.2,0.1,0.3,0
				C75.8,65,76,65,76.5,65c1,0.1,1.5,0.2,3,0.3c1,0.1,2.2,0.3,2.9,0.4c0.1,0,0.2,0,0.2,0c0-0.1,0.1-0.3,0.2-0.5
				c0.1-0.2,0.2-0.4,0.3-0.6c0.1-0.2,0.2-0.3,0.3-0.4c0-0.1-0.1-0.1-0.3-0.2c-0.1-0.1-0.1,0-0.2,0.1c-0.2,0.2-0.4,0.4-0.7,0.1
				L80.1,61.4z M80,62.2c0.5,0.6,1.3,1.5,1.8,2.1c-0.4-0.1-1.7-0.2-2.8-0.4C79.3,63.4,79.6,62.8,80,62.2z"/>
			<path class="st1" d="M20.9,17.2c0.4,1.8,0.5,2.1,0.2,2.4c-0.1,0.1,0,0.2,0.1,0.3c0.1,0.1,0.1,0.1,0.2,0c0.1-0.1,0.5-0.4,0.7-0.5
				c0.3-0.3,0.7-0.5,1-0.7c0.1-0.1,0-0.1,0-0.2c-0.1-0.2-0.1-0.2-0.3-0.1c-0.2,0.2-0.5,0.3-0.7,0.1c-0.2-0.2-0.4-1-0.6-1.5
				c0.3-0.3,1.4-1.1,1.9-1.4c0.3,0.2,1.2,0.8,1.3,0.9c0.2,0.2,0,0.4-0.2,0.6c-0.1,0.1,0,0.1,0.1,0.3c0.1,0.1,0.1,0.1,0.2,0
				c0.4-0.3,0.7-0.6,1-0.8c0.4-0.3,0.7-0.5,1.1-0.8c0.1-0.1,0-0.1-0.1-0.2c-0.1-0.1-0.1-0.2-0.2-0.1c-0.3,0.2-0.5,0.2-0.9-0.1
				c-0.9-0.5-1.3-0.8-2.6-1.6c-0.8-0.5-1.8-1.1-2.5-1.6c-0.1-0.1-0.2-0.1-0.2-0.1c-0.1,0-0.3,0.3-0.4,0.4c-0.2,0.1-0.4,0.3-0.5,0.4
				c-0.2,0.1-0.3,0.2-0.4,0.3c-0.1,0.1,0,0.2,0.1,0.3c0.1,0.1,0.1,0.1,0.3,0c0.2-0.1,0.5-0.2,0.7,0.2L20.9,17.2z M21.3,16.5
				c-0.2-0.7-0.6-1.9-0.8-2.7c0.3,0.2,1.4,0.9,2.3,1.5C22.4,15.7,21.8,16.1,21.3,16.5z"/>
			<g>
				<path class="st1" d="M64,36.3c4.2-2.4,8-7.2,9.1-10c0.1-0.1,0-0.2-0.1-0.2c-2.6,1.6-7.7,3.3-11.8,4.1c-1.2,0.2-3.6,0.5-5,0.7
					c-0.6,0.1-1,0.3-1.3,0.6c-0.4,0.4-0.5,0.9-0.5,1.5v3.5l-3.4-0.6c0,0-1.8-9.6-1.8-9.6c0-0.1,0-0.1,0.1-0.1c1-0.7,1.7-2,1.9-3.3
					c0-0.1,0-0.1-0.1-0.1c-0.2,0.2-0.6,0.5-1.2,0.7c-0.4,0.1-0.8,0.1-1.3,0.1c-0.9,0-3.2,0-3.5,0c-1.4,0-1.9,0.1-2.3,0.4
					C42.3,24.2,42,24.6,42,25v0.4c-0.6,0-1,0-1.3,0c-1.3,0-2.1,0.6-2.2,1.5c-0.1,0.8,0.5,1.8,1.5,2c0,0,0.1,0,0-0.1
					c-0.1-0.1-0.3-0.6,0.3-0.8c0.1-0.1,0.2-0.1,0.4-0.1c0.2,0,0.7,0,1.1,0c0,0.1-1.5,7.9-1.5,7.9l-3.4,0.6V33c0-0.6-0.2-1.1-0.5-1.5
					c-0.3-0.3-0.8-0.6-1.3-0.6c-1.4-0.2-3.8-0.5-5-0.7c-4.1-0.7-9.2-2.5-11.9-4.1c-0.1-0.1-0.2,0-0.1,0.2c1.1,2.8,4.9,7.6,9.1,10
					c0.1,0,0.1,0.1,0,0.1c-2.1-0.1-4.9-0.7-7.6-1.5c-0.2-0.1-0.2,0-0.1,0.2c2.1,2.9,6.3,5.9,8.4,6.7c0,0,0,0.1,0,0.1
					c-1.9,0-4.9-0.7-6.8-1.4c-0.2-0.1-0.2,0-0.1,0.2c1.5,2.3,5.4,5.3,7.7,6.2c0.1,0,0.1,0.1,0,0.1c-1.3,0-4.1-0.6-5.9-1.2
					c-0.1,0-0.2,0-0.1,0.2c1.7,2.3,4.4,4.5,7.3,6.4c0.1,0,0.1,0.1,0,0.1c-1.1,0-3.4-0.4-4.6-0.8c-0.1-0.1-0.2,0.1,0,0.2
					c1.7,2.3,4.2,4.5,6.4,5.6c0.1,0,0.1,0.1,0,0.1c-1,0-2.6-0.2-3.8-0.5c-0.1,0-0.2,0.1-0.1,0.2c1.4,1.7,4,4.4,6.8,5.5
					c0.4,0.2,0.5,0.3,0.8,0.7c0.3,0.4,1.7,2.3,2.2,3c0.1,0.1,0.1,0.2,0.1,0.2c-0.1,0.2-0.7,1.2-0.8,1.5c-0.1,0.1-0.1,0.2-0.2,0.1
					c-0.2-0.1-1.7-0.9-2-1c-0.7-0.3-1.2-0.3-1.7-0.1c-0.6,0.4-0.8,1-0.7,1.4c0.1,0.6,0.3,0.9,0.7,1.3c0,0,0,0,0,0c0-0.3,0-0.8,0.2-1
					c0.1-0.2,0.3-0.2,0.6-0.2c0.3,0,0.8,0.2,1,0.4c-0.3,0.6-0.3,1.5,0.4,2c0,0,0,0,0,0c0-0.5,0.1-0.9,0.5-1.1c0.2-0.1,0.4-0.1,0.5,0
					c0.4,0.1,1.4,0.6,2,1c0.3,0.2,0.4,0.4,0.4,0.6c0,0.3-0.2,0.6-0.7,0.9c0,0,0,0,0,0.1c0.4,0.1,0.7,0.1,1,0
					c0.8-0.2,1.1-0.8,1.1-1.5c0-0.7-0.8-1.2-1.2-1.4c-0.1-0.1-0.4-0.3-0.5-0.3c-0.1-0.1-0.1-0.1,0-0.2c0.1-0.2,0.7-1.3,0.8-1.5
					c0-0.1,0.1-0.2,0.2-0.2c0.1,0,3-0.7,3.1-0.7c-0.1,0.6-2,7.3-2.2,8.6c0,0,0,0,0,0c0.4-0.1,1.8-0.8,2.6-1.4c0.5,1.1,1.7,2.5,2.7,3
					c1-0.5,2.2-1.9,2.7-3c0.8,0.6,2.2,1.3,2.6,1.4c0,0,0,0,0,0c-0.2-1.3-2.1-8-2.2-8.6c0,0,3,0.7,3.1,0.7c0.1,0,0.2,0.1,0.2,0.2
					c0.1,0.2,0.7,1.3,0.8,1.5c0.1,0.1,0.1,0.2,0,0.2c-0.1,0.1-0.4,0.2-0.5,0.3c-0.4,0.3-1.2,0.8-1.2,1.4c0,0.7,0.3,1.2,1.1,1.5
					c0.3,0.1,0.6,0.1,1,0c0,0,0,0,0-0.1c-0.5-0.2-0.7-0.5-0.7-0.9c0-0.2,0.1-0.5,0.4-0.6c0.6-0.4,1.6-0.9,2-1c0.2-0.1,0.4,0,0.6,0
					c0.4,0.2,0.5,0.6,0.5,1.1c0,0,0,0,0,0c0.7-0.5,0.7-1.4,0.4-2c0.2-0.1,0.7-0.3,1-0.4c0.2,0,0.5,0.1,0.6,0.2
					c0.2,0.3,0.3,0.7,0.2,1c0,0,0,0,0,0c0.4-0.3,0.7-0.7,0.7-1.3c0.1-0.5-0.1-1.1-0.7-1.4c-0.4-0.2-1-0.2-1.7,0.1
					c-0.3,0.1-1.7,0.9-2,1c-0.1,0.1-0.2,0-0.3-0.1c-0.1-0.2-0.7-1.3-0.8-1.5c0-0.1,0-0.2,0-0.2c0.5-0.6,2-2.6,2.2-3
					c0.3-0.4,0.4-0.5,0.8-0.7c2.8-1.2,5.4-3.8,6.8-5.5c0.1-0.2,0.1-0.3-0.1-0.2c-1.3,0.3-2.8,0.5-3.8,0.5c-0.1,0-0.1-0.1,0-0.1
					c2.2-1,4.8-3.3,6.4-5.6c0.1-0.2,0.1-0.3,0-0.2c-1.2,0.4-3.5,0.8-4.6,0.8c-0.1,0-0.1-0.1,0-0.1c2.9-1.8,5.6-4,7.3-6.4
					c0.1-0.2,0-0.3,0-0.2c-1.8,0.6-4.6,1.2-5.9,1.2c-0.1,0-0.1,0-0.1-0.1c2.3-0.9,6.2-3.9,7.7-6.2c0.1-0.2,0.1-0.3-0.1-0.2
					c-1.9,0.8-4.9,1.4-6.8,1.4c-0.1,0-0.1,0,0-0.1c2.1-0.8,6.3-3.8,8.4-6.7c0.1-0.2,0.1-0.3-0.1-0.2c-2.7,0.9-5.4,1.4-7.5,1.5
					C63.9,36.4,63.9,36.3,64,36.3z M47.1,25.3l-1.8,1c-0.5,0.3-0.9,0.2-1.1-0.2c-0.2-0.3-0.4-0.8-0.4-0.8H47.1z M56.1,44.4
					c-1.1,2.3-1.5,3.8-1.5,5.4c0,1.1,0.1,1.8,0.3,2.6c0.1,0.7,0.3,1.4,0.2,2.3c-0.1,3.8-3.4,4.9-4.5,5.3c-1.7,0.6-3,1.3-4.2,2.2
					l-0.8,0.7l-0.9-0.7c-1.2-1-2.5-1.6-4.2-2.2c-1.1-0.4-4.4-1.5-4.5-5.3c0-0.9,0.1-1.6,0.2-2.3c0.1-0.7,0.3-1.5,0.3-2.6
					c0-1.6-0.4-3.1-1.5-5.4l-0.3-0.7l1.6-2.7h0.8c2.7,0,5.8-1.1,7.5-2.6l0.9-0.8l0.9,0.8c1.6,1.5,4.8,2.6,7.5,2.6h0.8l1.6,2.7
					L56.1,44.4z"/>
				<path class="st1" d="M54,42c-2.9,0-6.3-1.2-8.2-2.9l-0.3-0.2l-0.3,0.2c-1.8,1.7-5.2,2.9-8.1,2.9H37l-1.1,1.8L36,44
					c1.1,2.4,1.6,4,1.6,5.8c0,1.2-0.2,2-0.3,2.8c-0.1,0.7-0.3,1.3-0.2,2.1c0.1,2.8,2.1,3.8,3.9,4.4c1.9,0.6,3.2,1.3,4.5,2.4l0.3,0.2
					l0.2-0.2c1.3-1.1,2.7-1.8,4.5-2.4c1.8-0.6,3.8-1.6,3.9-4.4c0-0.8-0.1-1.4-0.2-2.1c-0.1-0.7-0.3-1.6-0.3-2.8
					c0-1.8,0.4-3.4,1.6-5.8l0.1-0.2L54.3,42H54z M52.9,49.8c0,1.3,0.2,2.1,0.3,2.9c0.1,0.7,0.2,1.2,0.2,1.9c-0.1,1.8-1,2.9-3.3,3.7
					c-1.8,0.6-3.2,1.3-4.5,2.4c-1.3-1-2.7-1.7-4.5-2.4c-2.3-0.8-3.3-1.9-3.3-3.7c0-0.7,0.1-1.3,0.2-1.9c0.1-0.7,0.3-1.6,0.3-2.9
					c0-1.9-0.4-3.5-1.6-5.9l0.7-1c2.9-0.1,6.2-1.2,8.2-2.9c2,1.7,5.2,2.8,8.2,2.9l0.6,1C53.3,46.3,52.9,47.9,52.9,49.8z"/>
				<path class="st1" d="M52,43.8c-0.2,0-0.5,0.1-0.7,0.2c-0.5,0.1-1.1,0.5-1.1,1.5c0,0.6,0.3,1.5,0.5,2.4c0.3,1.5,0.4,2.2,0.3,3.7
					c-0.2,2-0.8,3.7-2.1,3.8c-1,0.1-1.7-0.6-1.6-2.4c0.1-2.1,0.8-4.2,0.9-6.6c0-0.9,0-2.2-0.7-2.9c-0.4-0.3-0.8-0.1-0.7,0.3
					c0.1,0.8,0.1,1.9-0.5,2.9c-0.4,0.7-1,1.2-1.5,1.3c-0.8,0.2-1.1,0-1.5-0.2c0.3,0.5,1,1,1.7,1c0.9,0,1.5-0.4,2.3-1.5
					c0,1-0.9,4.3-1.2,6.2c-0.3,1.9,0.9,3.5,2.9,3.3c2-0.1,3.3-2,3.1-5c-0.2-3.5-1.3-5.6-0.5-6.1c0.4-0.2,0.7-0.1,0.9-0.6
					c0.2-0.4,0.1-0.9,0.1-1.1c0-0.2,0.2-0.3,0.1-0.5C52.4,43.7,52.2,43.8,52,43.8z"/>
				<path class="st1" d="M44,56.7c-0.9-0.2-1.2-1.1-3.3-0.9c0.4-1.4,1.1-3.1,0.8-5.3c-0.2-1.9-0.9-2.5-1-4.4
					c-0.1-1.7,1.2-2.8,2.3-2.8c0.9,0,1.1,0.4,1.1,0.9c0,0.3-0.4,1.6,1.6,1.5c0.1-0.7-0.6-3.1-2.7-3c-2.2,0.1-4,2.4-3.8,4.4
					c0,1.7,1.5,4.2,1.4,6.3c-0.1,1.8-0.6,2.8-0.8,3.2c0.9-0.4,1.8-0.3,2.3-0.1c0.6,0.2,1.4,1,1.9,1.3c0.8,0.5,1.5,0.4,1.9,0
					c0.7-0.7,0.4-1.9-0.6-2.9C45.4,56.2,44.9,57,44,56.7z"/>
			</g>
			<path class="st1" d="M91.2,45.8c0,25.2-20.4,45.6-45.6,45.6C20.4,91.4,0,71,0,45.8C0,20.6,20.4,0.2,45.6,0.2
				C70.8,0.2,91.2,20.6,91.2,45.8z M45.6,1.3C21,1.3,1.1,21.2,1.1,45.8c0,24.6,19.9,44.5,44.5,44.5c24.6,0,44.5-19.9,44.5-44.5
				C90.1,21.2,70.2,1.3,45.6,1.3z"/>
		</g>
	</g>
</g>
</svg>
