<svg xmlns="http://www.w3.org/2000/svg" viewBox="0 0 340.16 72.22"><defs><style>.cls-1{fill:#231815;}.cls-2{fill:#0055b8;}.cls-3{fill:#fff;}</style></defs><title>icu_logo_01</title><g id="レイヤー_2" data-name="レイヤー 2"><g id="レイヤー_1-2" data-name="レイヤー 1"><path class="cls-1" d="M137,51h-1v6.78a.38.38,0,0,0,.41.41h.95V51.36a.38.38,0,0,0-.4-.4"/><path class="cls-1" d="M186.66,51h-.95v6.78a.38.38,0,0,0,.41.41h.94V51.36a.38.38,0,0,0-.4-.4"/><path class="cls-1" d="M243.29,51h-1v6.78a.38.38,0,0,0,.41.41h.94V51.36a.38.38,0,0,0-.39-.4"/><path class="cls-1" d="M259.32,51h-1v6.78a.38.38,0,0,0,.41.41h.94V51.36a.38.38,0,0,0-.39-.4"/><path class="cls-1" d="M324.78,51h-1v6.78a.38.38,0,0,0,.41.41h.94V51.36a.38.38,0,0,0-.39-.4"/><path class="cls-1" d="M295.54,51h-1v6.78a.38.38,0,0,0,.41.41h.95V51.36a.39.39,0,0,0-.4-.4"/><path class="cls-1" d="M164.3,53.06a1.87,1.87,0,0,0-2.16-2.1h-3.46v6.78a.38.38,0,0,0,.41.41H160V55.07h1.65l1.53,2.82a.39.39,0,0,0,.41.25h1.13L163,54.9a1.8,1.8,0,0,0,1.35-1.84m-4.33-1h1.83c.46,0,1.16,0,1.16.9s-.8.9-1.13.9H160Z"/><path class="cls-1" d="M143.28,55.84s-2.54-4.37-2.68-4.6a.54.54,0,0,0-.45-.28h-1.27v7.18h1.29V53.07s2.68,4.55,2.81,4.76a.51.51,0,0,0,.48.29h1.08V51h-1.26Z"/><path class="cls-1" d="M169.87,55.84s-2.54-4.37-2.68-4.6a.54.54,0,0,0-.45-.28h-1.27v7.18h1.29V53.07s2.68,4.55,2.81,4.76a.51.51,0,0,0,.48.29h1.08V51h-1.26Z"/><path class="cls-1" d="M201.09,55.84l-2.67-4.6A.54.54,0,0,0,198,51H196.7v7.18H198V53.07l2.8,4.76a.53.53,0,0,0,.49.29h1.08V51h-1.27Z"/><path class="cls-1" d="M273,55.84s-2.54-4.37-2.68-4.6a.54.54,0,0,0-.45-.28h-1.27v7.18h1.29V53.07l2.81,4.76a.51.51,0,0,0,.48.29h1.08V51H273Z"/><path class="cls-1" d="M291.88,55.84l-2.68-4.6a.55.55,0,0,0-.45-.28h-1.27v7.18h1.29V53.07s2.68,4.55,2.81,4.76a.51.51,0,0,0,.48.29h1.08V51h-1.26Z"/><path class="cls-1" d="M145.5,52.14h2.43v5.6a.38.38,0,0,0,.41.41h.87v-6h2.44V51H145.5Z"/><path class="cls-1" d="M178.44,52.14h2.43v5.6a.38.38,0,0,0,.41.41h.88v-6h2.43V51h-6.15Z"/><path class="cls-1" d="M251.2,52.14h2.43v5.6a.38.38,0,0,0,.41.41h.87v-6h2.44V51H251.2Z"/><path class="cls-1" d="M326.09,52.14h2.43v5.6a.38.38,0,0,0,.41.41h.87v-6h2.44V51h-6.15Z"/><path class="cls-1" d="M152.57,51.38v6.35a.42.42,0,0,0,.43.42h4.49V57h-3.64V55h3.41V53.87h-3.41V52.12h3.64V51H153a.42.42,0,0,0-.43.42"/><path class="cls-1" d="M212.35,51h-1.28v6.77a.42.42,0,0,0,.43.42h4.67V57h-3.82Z"/><path class="cls-1" d="M304.28,51.38v6.35a.42.42,0,0,0,.43.42h4.48V57h-3.64V55H309V53.87h-3.42V52.12h3.64V51h-4.48a.42.42,0,0,0-.43.42"/><path class="cls-1" d="M241,53.06a1.87,1.87,0,0,0-2.16-2.1h-3.46v6.78a.38.38,0,0,0,.41.41h.88V55.07h1.66l1.52,2.82a.4.4,0,0,0,.42.25h1.12l-1.74-3.24A1.8,1.8,0,0,0,241,53.06m-4.33-1h1.83c.46,0,1.16,0,1.16.9s-.79.9-1.12.9h-1.87Z"/><path class="cls-1" d="M316,53.06a1.87,1.87,0,0,0-2.16-2.1h-3.46v6.78a.38.38,0,0,0,.42.41h.87V55.07h1.67c.41.77,1.4,2.62,1.52,2.82a.39.39,0,0,0,.41.25h1.13l-1.75-3.24A1.8,1.8,0,0,0,316,53.06m-4.33-1h1.84c.45,0,1.16,0,1.16.9s-.8.9-1.13.9h-1.87Z"/><path class="cls-1" d="M302.13,51.23c-.17.43-2,5.29-2,5.29s-1.84-4.88-2-5.29a.34.34,0,0,0-.38-.25h-1.11c.11.3,2.44,6.43,2.56,6.73a.6.6,0,0,0,.64.43h1L303.61,51h-1.1a.34.34,0,0,0-.38.25"/><path class="cls-1" d="M339.29,51h-1.08a.45.45,0,0,0-.44.26L336,54.13l-1.78-2.89a.47.47,0,0,0-.45-.26h-1.08l2.64,4.37v2.42a.39.39,0,0,0,.38.38h.92V55.43Z"/><path class="cls-1" d="M207.05,51h-1l-3,7.16h1.13c.12,0,.26,0,.38-.25l.55-1.33h3.08c.3.71.52,1.25.55,1.33a.35.35,0,0,0,.39.25h1.12c-.09-.23-2.71-6.53-2.83-6.82s-.28-.34-.43-.34m-1.39,4.39c.45-1.09.9-2.2,1.05-2.55.15.35.6,1.46,1,2.55Z"/><path class="cls-1" d="M264.54,51h-1l-3,7.16h1.13c.12,0,.26,0,.38-.25l.55-1.33h3.09c.29.71.51,1.25.55,1.33a.34.34,0,0,0,.38.25h1.12c-.09-.23-2.71-6.53-2.83-6.82s-.28-.34-.43-.34m-1.39,4.39c.45-1.09.9-2.2,1.05-2.55.15.35.6,1.46,1.05,2.55Z"/><path class="cls-1" d="M175.89,51h-1l-3,7.16h1.12a.34.34,0,0,0,.38-.25c0-.08.26-.62.56-1.33h3.08l.55,1.33a.34.34,0,0,0,.38.25h1.13c-.1-.23-2.72-6.53-2.84-6.82S176,51,175.89,51m-1.39,4.39c.45-1.09.9-2.2,1.05-2.55.14.35.6,1.46,1,2.55Z"/><path class="cls-1" d="M191.9,50.84a3.74,3.74,0,1,0,3.75,3.74,3.74,3.74,0,0,0-3.75-3.74m0,6.14a2.4,2.4,0,1,1,2.4-2.4,2.4,2.4,0,0,1-2.4,2.4"/><path class="cls-1" d="M225.75,55.93a2.94,2.94,0,0,1-.68.69,2.53,2.53,0,0,1-3.34-3.78,2.42,2.42,0,0,1,1.8-.73,2.85,2.85,0,0,1,1.34.31,3.22,3.22,0,0,1,.85.7.29.29,0,0,0,.46,0l.57-.56a3.66,3.66,0,0,0-3.22-1.77,3.82,3.82,0,0,0-2.67,1.07,3.81,3.81,0,0,0,0,5.41,3.77,3.77,0,0,0,2.63,1.06h0a4,4,0,0,0,1.92-.44A3.88,3.88,0,0,0,227,56.27l.1-.19-.89-.26a.4.4,0,0,0-.44.11"/><path class="cls-1" d="M232.64,51.37v2.49h-3.32V51.37a.38.38,0,0,0-.38-.41H228v7.19h.91a.39.39,0,0,0,.39-.38V55h3.32v2.73a.39.39,0,0,0,.39.38h.91V51H233a.38.38,0,0,0-.38.41"/><path class="cls-1" d="M284.71,51.37v3.92c0,.65,0,1.86-1.66,1.86s-1.67-1.22-1.67-1.86V51.37A.37.37,0,0,0,281,51h-.93v4.27a2.7,2.7,0,0,0,3,3.14c2.92,0,3-2,3-3.08V51h-.93a.38.38,0,0,0-.37.41"/><path class="cls-1" d="M247.78,51.87a2.78,2.78,0,0,1,1.86.72.44.44,0,0,0,.58,0c.19-.14.54-.43.54-.43a3.57,3.57,0,0,0-3.24-1.46A2.52,2.52,0,0,0,244.84,53c0,1.38,1.2,1.85,2.8,2.09,1.24.19,1.74.46,1.77,1s-.35,1.06-1.54,1.07a2,2,0,0,1-2-1,.37.37,0,0,0-.59-.11l-.58.38a3.12,3.12,0,0,0,3.18,2c1.29,0,2.94-.63,2.87-2.38s-2.21-2.09-2.84-2.22c-.9-.17-1.58-.21-1.7-.79-.1-.42.3-1.15,1.58-1.12"/><path class="cls-1" d="M319.79,51.87a2.78,2.78,0,0,1,1.86.72.45.45,0,0,0,.59,0l.54-.43a3.59,3.59,0,0,0-3.25-1.46A2.52,2.52,0,0,0,316.85,53c0,1.38,1.2,1.85,2.8,2.09,1.24.19,1.74.46,1.77,1s-.35,1.06-1.53,1.07a2,2,0,0,1-2-1,.37.37,0,0,0-.59-.11l-.57.38a3.1,3.1,0,0,0,3.17,2c1.29,0,2.93-.63,2.87-2.38s-2.21-2.09-2.84-2.22c-.9-.17-1.57-.21-1.7-.79-.1-.42.3-1.15,1.58-1.12"/><rect class="cls-1" x="142.04" y="41.71" width="0.13" height="0.08"/><rect class="cls-1" x="142.04" y="40.83" width="0.13" height="0.08"/><path class="cls-1" d="M229.89,24.94a27.67,27.67,0,0,1-1.92,3L229.56,29a17.37,17.37,0,0,0,2.07-3.2Z"/><path class="cls-1" d="M238.25,28.87l1.54-1.23a32.29,32.29,0,0,0-2.33-2.72L236,26.23c.3.34,1.5,1.68,2.25,2.64"/><path class="cls-1" d="M339.19,22H317.53v5.68h1.93v-3.7H338l-.8,3.83h2l1-4.34a2,2,0,0,0,.06-.47,1,1,0,0,0-1-1"/><path class="cls-1" d="M173.23,18.25h-6.09V41.46h2V20.23H172a41.12,41.12,0,0,1-1.7,5.59V27a12.38,12.38,0,0,1,1.46,2.78,8,8,0,0,1,.42,2.93,10.67,10.67,0,0,1-.06,1.36,2.41,2.41,0,0,1-.15.64,1.37,1.37,0,0,1-.15.25,1.48,1.48,0,0,1-1.2.39h-.12v2a4.61,4.61,0,0,0,1.78-.33,2.57,2.57,0,0,0,1-.81,2.9,2.9,0,0,0,.47-.81A4.63,4.63,0,0,0,174,34a12.1,12.1,0,0,0,.05-1.36,10.12,10.12,0,0,0-.5-3.64,14.43,14.43,0,0,0-1.38-2.75,37.82,37.82,0,0,0,2-6.93,1,1,0,0,0-1-1.09"/><path class="cls-1" d="M157.49,18.42H136.14V41.31H158.5V19.45a1,1,0,0,0-1-1m-1,20.91H138.13V20.4h18.39Z"/><path class="cls-1" d="M248,29.72H230.77V41.46H249V30.74a1,1,0,0,0-1-1m-1,2V33h-14.3V31.69Zm0,4.53h-14.3V34.93h14.3Zm-14.3,3.26V38.19h14.3v1.28Z"/><polygon class="cls-1" points="154.87 35.2 148.09 35.2 148.09 30.02 153.75 30.02 153.75 28.04 148.09 28.04 148.09 24.65 154.43 24.65 154.43 22.67 140.21 22.67 140.21 24.65 146.1 24.65 146.1 28.04 140.88 28.04 140.88 30.02 146.1 30.02 146.1 35.2 139.64 35.2 139.64 37.18 154.87 37.18 154.87 35.2"/><polygon class="cls-1" points="150.58 32.31 153.08 34.55 154.41 33.09 151.92 30.84 150.58 32.31"/><rect class="cls-1" x="178.08" y="29.04" width="8.2" height="1.98"/><path class="cls-1" d="M189.12,34.55v-2H175.58v2h5.63v4.79c0,.2-.06.44-.37.47a14.74,14.74,0,0,1-1.65-.09V41.6c.38,0,1.16.13,1.52.14,1.93.07,2.48-.63,2.48-2.22v-5Z"/><path class="cls-1" d="M233.26,26.62c0,.37-.15.45-.39.46s-.93-.06-.93-.06V28.9s1.05.1,1.49.1c1.45,0,1.81-.66,1.81-1.65V24h4.66V22h-4.66V20.86h3.42v-2h-3.42v-1h-2V22h-4.87v2h4.87Z"/><path class="cls-1" d="M175.72,25.29l-1.28,1.34c.18.17.78.83,1.24,1.34-.3.26-.63.52-1,.79v2.36a24.94,24.94,0,0,0,5.64-5.75,15.89,15.89,0,0,0,2.29-5.6,1.1,1.1,0,0,0-1.16-1.23h-4.53a13.38,13.38,0,0,1-1.94,3.3l1,1.6a12.47,12.47,0,0,0,2.15-2.92h2.45a11.8,11.8,0,0,1-1.4,3.3c-.58-.52-1.12-1-1.23-1.08L176.7,24.2l.35.32,1,.92c-.29.38-.6.77-1,1.17-.57-.58-1.22-1.2-1.36-1.32m2.21-4.77h0"/><polygon class="cls-1" points="210.17 36.58 215.25 36.58 215.25 34.6 210.17 34.6 210.17 32.4 208.19 32.4 208.19 34.6 203.31 34.6 203.31 36.58 208.19 36.58 208.19 39.43 198.89 39.43 198.89 41.41 219.78 41.41 219.78 39.43 210.17 39.43 210.17 36.58"/><path class="cls-1" d="M269.3,35.19v-2c-.71.17-2.76.57-4.44.82V33s.9-.91,2-2.18a3.4,3.4,0,0,0,1-1.72,1,1,0,0,0-1.14-1.16H265c.38-.47.75-.95,1.13-1.46h3.6v-2h-2.23l.33-.51a37,37,0,0,0,2.74-5l-1.76-.8c-.24.45-.56,1.08-1,1.86v0H265V18h-2V20h-3.51v2H263v2.44h-5v2h5.77c-.38.48-.77,1-1.19,1.46H259v1.93h1.74a29.76,29.76,0,0,1-2.6,2.17v2.07c.4-.27,1.08-.71,2.13-1.54a34,34,0,0,0,3-2.7h1.79A26.62,26.62,0,0,1,262.87,32v2.3l-2.32.27-1.73.18-.72.08v1.93c.27,0,2.24-.14,4.77-.44v3.06a.41.41,0,0,1-.37.47,14.9,14.9,0,0,1-1.65-.09V41.6c.38,0,1.16.13,1.53.14,1.92.07,2.48-.63,2.48-2.22V36a36.2,36.2,0,0,0,4.44-.83M265,22h1.78c-.45.76-1,1.58-1.54,2.44H265Z"/><path class="cls-1" d="M338.94,17.54l-1.77-1.15a33.54,33.54,0,0,1-2.54,3.41l1.64,1.34a32.07,32.07,0,0,0,2.67-3.6"/><path class="cls-1" d="M329.55,19.94s-1.19-3-1.56-3.71l-1.82.78s1.2,2.92,1.46,3.61l1.92-.68"/><path class="cls-1" d="M322.77,20.14s-1.3-3-1.66-3.68l-1.82.78s1.3,2.89,1.56,3.58l1.92-.68"/><path class="cls-1" d="M331.83,30.82c1.21-1.57,2.39-3,2.35-3.91a1.21,1.21,0,0,0-1.31-1.17h-9.74v2h8.47A23.28,23.28,0,0,1,328,32.05v.46h-9.43v2H328v5.8a.62.62,0,0,1-.65.66,22.33,22.33,0,0,1-2.5-.15v2.05a17.82,17.82,0,0,0,2.84.26c2.12,0,2.56-.82,2.56-2.2V34.49H339v-2h-8.62c.48-.52,1.18-1.28,1.49-1.69"/><path class="cls-1" d="M186.8,35.87l-1.48,1.35c.37.41,1.35,1.77,1.64,2.19s.68,1,1.07,1.64l1.86-.84a21.71,21.71,0,0,0-1.46-2.33,20.92,20.92,0,0,0-1.63-2"/><path class="cls-1" d="M175.53,38.09a14.75,14.75,0,0,1-1.26,1.52L175.63,41a17.36,17.36,0,0,0,1.57-1.91,18.05,18.05,0,0,0,1.58-2.44L177,35.75a15.88,15.88,0,0,1-1.51,2.34"/><path class="cls-1" d="M186.19,23c-.17-.34-.27-.59-.37-.83H183.7a15.21,15.21,0,0,0,1,2.32,22.37,22.37,0,0,1-2.21,1.61v2.17a33,33,0,0,0,3.2-2.15l.33.44a20.94,20.94,0,0,0,3.82,4V27.9A16.75,16.75,0,0,1,187.42,25l-.22-.34a12.76,12.76,0,0,0,2.63-4.94,1,1,0,0,0-1.09-1.22h-5.16v2h4A8.07,8.07,0,0,1,186.19,23"/><path class="cls-1" d="M277.46,34.65a19.91,19.91,0,0,0,1.39-3,31.6,31.6,0,0,0,1.26-4.81c.14-.77.25-1.47.33-2,0-.28.07-.52.1-.73H282v-2h-7.42c.27-1.08.5-2.31.79-3.89l-2-.34c-.63,3.36-1.31,6.74-3.09,9.27v3a12.37,12.37,0,0,0,2.07-2.7c.15.68.35,1.43.58,2.21a24.63,24.63,0,0,0,2.12,5.07,14.57,14.57,0,0,1-.92,1.19,16.3,16.3,0,0,1-4.92,3.75v2.22a18.65,18.65,0,0,0,6.42-4.66q.32-.36.6-.72a26.41,26.41,0,0,0,6.16,5.81V39.71a23.4,23.4,0,0,1-5-5.06m-3.71-9.91c.08-.21.17-.43.24-.65h4.54c0,.13,0,.27,0,.42-.12.82-.31,1.93-.56,3.08A23,23,0,0,1,277,31c-.21.56-.44,1.12-.71,1.67a33.45,33.45,0,0,1-2.52-7.89"/><path class="cls-1" d="M249.46,18.53h-7.54v2h6.44a8.62,8.62,0,0,1-2.5,3.64,10.48,10.48,0,0,1-1.48-2h-2.26a13.67,13.67,0,0,0,2.15,3.24,20.46,20.46,0,0,1-3.33,1.48v2.05a21.27,21.27,0,0,0,4.77-2.12,16.46,16.46,0,0,0,4.86,2.69v-2a15.28,15.28,0,0,1-3.23-2,11.08,11.08,0,0,0,3-4.57,6.66,6.66,0,0,0,.32-1.28,1.09,1.09,0,0,0-1.16-1.14"/><path class="cls-1" d="M216.17,31.48h5.19v-2h-5v-8h4v-2h-4V17.86h-2v1.62h-10V17.86h-2v1.62h-4.14v2h4.14v8h-5.12v2h5.25a13.93,13.93,0,0,1-1.27,1.17,15.09,15.09,0,0,1-4,2.43v2.13a19.6,19.6,0,0,0,5.77-3.28,15.57,15.57,0,0,0,2.27-2.45h8a15.6,15.6,0,0,0,2.28,2.45,19.66,19.66,0,0,0,5.76,3.28V35.08a15.26,15.26,0,0,1-4-2.43,15.4,15.4,0,0,1-1.27-1.17m-11.76-6.77h10v1.42h-10Zm10-2h-10V21.46h10Zm-10,5.37h10v1.4h-10Z"/><path class="cls-1" d="M304.91,34.54a22.43,22.43,0,0,1-4.06-7.82c.11-.61.18-1.33.24-2.1h10v-2h-9.87c.11-2.47.1-4.79.1-4.79H299c0,1,0,2.54-.14,4.79h-9.67v2h9.51c0,.05,0,.1,0,.15A19.1,19.1,0,0,1,295,34.58a22.38,22.38,0,0,1-6.12,5.47v2.53A22.17,22.17,0,0,0,297.51,35a24.22,24.22,0,0,0,2.31-4.45,23.37,23.37,0,0,0,2.59,4.64,22.92,22.92,0,0,0,9.25,7.52V40.3a21.72,21.72,0,0,1-6.75-5.76"/><path class="cls-2" d="M0,56.53H110a4.56,4.56,0,0,1,4.56,4.56V72.22a0,0,0,0,1,0,0H4.56A4.56,4.56,0,0,1,0,67.66V56.53a0,0,0,0,1,0,0Z"/><path class="cls-3" d="M5.81,60.44h5.41v1.4H7.38V63.3h3.37v1.4H7.38v1.5h3.89v1.41H5.81Z"/><path class="cls-3" d="M14.76,63.73l1-1.61h1.63L15.57,64.8l1.93,2.81H15.83l-1.1-1.71-1.11,1.71H12l1.92-2.79-1.85-2.7h1.67Z"/><path class="cls-3" d="M18.38,62.12h1.56v.79A2,2,0,0,1,21.65,62a2.58,2.58,0,0,1,2.5,2.83v0a2.57,2.57,0,0,1-2.5,2.84,2.11,2.11,0,0,1-1.71-.82v2.35H18.38Zm4.21,2.75v0a1.35,1.35,0,1,0-2.67,0v0a1.35,1.35,0,1,0,2.67,0Z"/><path class="cls-3" d="M24.92,66v0c0-1.2.91-1.75,2.21-1.75a3.74,3.74,0,0,1,1.34.23v-.1c0-.64-.4-1-1.18-1a3.91,3.91,0,0,0-1.51.3l-.39-1.19a4.75,4.75,0,0,1,2.13-.44,2.54,2.54,0,0,1,1.85.61A2.4,2.4,0,0,1,30,64.42v3.19h-1.5V67a2.11,2.11,0,0,1-1.66.7A1.69,1.69,0,0,1,24.92,66Zm3.57-.36V65.4a2.34,2.34,0,0,0-1-.21c-.66,0-1.07.27-1.07.76v0c0,.42.35.66.85.66C28,66.63,28.49,66.24,28.49,65.67Z"/><path class="cls-3" d="M31.25,62.12h1.56v.78a1.94,1.94,0,0,1,1.6-.88,1.8,1.8,0,0,1,1.87,2v3.55H34.72V64.55c0-.74-.35-1.12-.94-1.12s-1,.38-1,1.12v3.06H31.25Z"/><path class="cls-3" d="M37.33,64.87v0A2.57,2.57,0,0,1,39.83,62a2.11,2.11,0,0,1,1.71.82v-2.7H43.1v7.47H41.54v-.79a2,2,0,0,1-1.71.89A2.58,2.58,0,0,1,37.33,64.87Zm4.23,0v0a1.35,1.35,0,1,0-2.67,0v0a1.35,1.35,0,1,0,2.67,0Z"/><path class="cls-3" d="M44.47,60.14h1.64v1.38H44.47Zm0,2h1.56v5.49H44.51Z"/><path class="cls-3" d="M47.48,62.12H49v.78A2,2,0,0,1,50.64,62a1.8,1.8,0,0,1,1.86,2v3.55H51V64.55c0-.74-.35-1.12-.94-1.12s-1,.38-1,1.12v3.06H47.48Z"/><path class="cls-3" d="M53.84,68.69l.53-1.17a3.53,3.53,0,0,0,1.85.51c1.07,0,1.57-.52,1.57-1.5v-.26a2.16,2.16,0,0,1-1.79.89,2.41,2.41,0,0,1-2.44-2.56v0A2.42,2.42,0,0,1,56,62a2.22,2.22,0,0,1,1.77.82v-.72h1.55v4.25a3,3,0,0,1-.69,2.16,3.24,3.24,0,0,1-2.37.73A5.15,5.15,0,0,1,53.84,68.69Zm3.95-4.09v0a1.27,1.27,0,0,0-1.34-1.27,1.26,1.26,0,0,0-1.33,1.27v0a1.25,1.25,0,0,0,1.33,1.27A1.28,1.28,0,0,0,57.79,64.6Z"/><path class="cls-3" d="M63.85,60.44h2.93a2.46,2.46,0,0,1,2.74,2.48v0c0,1.66-1.29,2.52-2.9,2.52H65.43v2.15H63.85Zm2.82,3.62A1.12,1.12,0,0,0,67.92,63v0c0-.71-.49-1.08-1.28-1.08H65.43v2.19Z"/><path class="cls-3" d="M70.21,64.89v0a3,3,0,0,1,5.93,0v0a2.88,2.88,0,0,1-3,2.86A2.85,2.85,0,0,1,70.21,64.89Zm4.4,0v0a1.46,1.46,0,0,0-1.45-1.51,1.4,1.4,0,0,0-1.42,1.49v0a1.46,1.46,0,0,0,1.44,1.52A1.41,1.41,0,0,0,74.61,64.89Z"/><path class="cls-3" d="M77.48,66.05v-2.6h-.66V62.12h.66v-1.4H79v1.4h1.29v1.33H79v2.34c0,.36.15.54.5.54a1.52,1.52,0,0,0,.77-.2v1.25a2.26,2.26,0,0,1-1.23.32C78.12,67.7,77.48,67.32,77.48,66.05Z"/><path class="cls-3" d="M81.15,64.89v0A2.73,2.73,0,0,1,83.86,62c1.84,0,2.68,1.42,2.68,3,0,.12,0,.26,0,.41H82.7A1.27,1.27,0,0,0,84,66.48a1.79,1.79,0,0,0,1.33-.56l.89.79a2.9,2.9,0,0,1-5.11-1.82ZM85,64.43a1.17,1.17,0,0,0-1.16-1.16,1.22,1.22,0,0,0-1.18,1.16Z"/><path class="cls-3" d="M87.64,62.12H89.2v.78A1.94,1.94,0,0,1,90.8,62a1.8,1.8,0,0,1,1.87,2v3.55H91.11V64.55c0-.74-.35-1.12-.94-1.12s-1,.38-1,1.12v3.06H87.64Z"/><path class="cls-3" d="M94.22,66.05v-2.6h-.65V62.12h.65v-1.4h1.56v1.4h1.29v1.33H95.78v2.34c0,.36.15.54.5.54a1.52,1.52,0,0,0,.77-.2v1.25a2.26,2.26,0,0,1-1.23.32C94.87,67.7,94.22,67.32,94.22,66.05Z"/><path class="cls-3" d="M98.2,60.14h1.63v1.38H98.2Zm0,2h1.55v5.49H98.24Z"/><path class="cls-3" d="M100.88,66v0c0-1.2.91-1.75,2.21-1.75a3.74,3.74,0,0,1,1.34.23v-.1c0-.64-.4-1-1.18-1a3.91,3.91,0,0,0-1.51.3l-.39-1.19a4.78,4.78,0,0,1,2.13-.44,2.52,2.52,0,0,1,1.85.61,2.4,2.4,0,0,1,.59,1.75v3.19h-1.5V67a2.11,2.11,0,0,1-1.66.7A1.69,1.69,0,0,1,100.88,66Zm3.57-.36V65.4a2.3,2.3,0,0,0-1-.21c-.67,0-1.08.27-1.08.76v0c0,.42.35.66.85.66C104,66.63,104.45,66.24,104.45,65.67Z"/><path class="cls-3" d="M107.29,60.14h1.55v7.47h-1.55Z"/><path class="cls-2" d="M.39,36.31V.37H4.18c4.6,0,5.12.78,5.12,4.54V42.35H5.53c-5.42,0-5.14-2.37-5.14-6"/><path class="cls-2" d="M98.09,41.8C113.25,41,114.8,29.89,114.8,24.17V.76h-2.89c-3.73,0-4.78,0-4.78,3.5v19c0,3.95-.42,10.5-9.31,11.62a8.59,8.59,0,0,1-2.15,0C87,34,86.36,27.75,86.36,23.29v-19c0-3.52-1.11-3.5-4.85-3.5H78.68V24.15c0,8.91,3.53,16.82,16.72,17.64a18.61,18.61,0,0,0,2.69,0"/><path class="cls-2" d="M24.21,20c-.2,7.36,2.33,13.3,7.29,17.12a22.51,22.51,0,0,0,14.13,4.44A22.71,22.71,0,0,0,58.19,37.7a26.25,26.25,0,0,0,7.67-8.43s-1.8-1.19-3-1.93c-2.21-1.41-3.44-.35-4.63,1-3.68,4.11-7.13,6.47-12.78,6.39a13.44,13.44,0,0,1-10-4.34,14.61,14.61,0,0,1-3.3-10,14.49,14.49,0,0,1,4.07-10,13.29,13.29,0,0,1,9.87-3.57,17.19,17.19,0,0,1,9.58,3.3,4,4,0,0,0,4.2.56C61.6,9.94,63.72,9,63.72,9,62,6.76,57.7.91,47.4.08,35.71-.86,24.57,6.69,24.21,20"/></g></g></svg>