<?xml version="1.0" encoding="utf-8"?>
<!-- Generator: Adobe Illustrator 24.0.3, SVG Export Plug-In . SVG Version: 6.00 Build 0)  -->
<svg version="1.1" id="レイヤー_1" xmlns:figma="http://www.figma.com/figma/ns"
	 xmlns="http://www.w3.org/2000/svg" xmlns:xlink="http://www.w3.org/1999/xlink" x="0px" y="0px" viewBox="0 0 109.5 24.5"
	 style="enable-background:new 0 0 109.5 24.5;" xml:space="preserve">
<style type="text/css">
	.st0{enable-background:new    ;}
	.st1{fill:#A81E2E;}
</style>
<title>Logo</title>
<g class="st0">
	<path class="st1" d="M1,10c0-3,0.7-5.4,2.1-7.1s3.3-2.5,5.7-2.5c2.5,0,4.4,0.8,5.8,2.5s2,4,2,7c0,2.2-0.3,4-0.9,5.4
		s-1.4,2.5-2.6,3.3c-1.1,0.8-2.5,1.2-4.2,1.2s-3.1-0.3-4.2-1s-2-1.7-2.7-3.2S1,12.2,1,10z M5.6,10c0,1.9,0.3,3.2,0.8,4.1
		c0.6,0.8,1.3,1.2,2.3,1.2s1.8-0.4,2.3-1.2s0.8-2.3,0.8-4.3c0-1.8-0.3-3-0.9-3.9c-0.6-0.8-1.3-1.2-2.3-1.2c-0.9,0-1.7,0.4-2.3,1.2
		C5.9,6.8,5.6,8.1,5.6,10z"/>
	<path class="st1" d="M19,0.6h12.4v4h-7.8v3h7.2v3.8h-7.2v3.7h8v4.2H19V0.6z"/>
	<path class="st1" d="M47.4,0.6h4.7v10.1c0,2.1-0.2,3.8-0.5,4.9s-0.9,2.1-1.8,2.8c-0.9,0.8-2.1,1.2-3.5,1.2c-1.5,0-2.7-0.3-3.5-0.8
		s-1.5-1.3-1.9-2.2c-0.5-1-0.7-2.2-0.8-3.6l4.4-0.8c0,0.8,0.1,1.4,0.2,1.8c0.1,0.4,0.3,0.7,0.6,1c0.2,0.2,0.4,0.2,0.8,0.2
		c0.5,0,0.9-0.2,1.1-0.7s0.4-1.3,0.4-2.4V0.6H47.4z"/>
	<path class="st1" d="M58.4,10.2l-4-0.5c0.2-0.9,0.4-1.5,0.7-2c0.3-0.5,0.7-0.9,1.2-1.3c0.4-0.3,0.9-0.5,1.6-0.6s1.4-0.2,2.2-0.2
		c1.3,0,2.3,0.1,3,0.3C63.9,6.1,64.5,6.4,65,7c0.4,0.4,0.6,0.9,0.8,1.6c0.2,0.7,0.3,1.4,0.3,2v6c0,0.6,0,1.1,0.1,1.5
		s0.2,0.8,0.4,1.4h-3.9c-0.2-0.3-0.3-0.6-0.3-0.8c0-0.2-0.1-0.5-0.1-0.9c-0.5,0.7-1.1,1.1-1.6,1.4c-0.7,0.4-1.6,0.6-2.6,0.6
		c-1.3,0-2.3-0.4-3-1.1s-1-1.7-1-2.8c0-1,0.2-1.9,0.7-2.5s1.4-1.2,2.7-1.5c1.6-0.4,2.6-0.7,3-0.8c0.5-0.2,1-0.4,1.5-0.6
		c0-0.6-0.1-1.1-0.3-1.3c-0.2-0.3-0.6-0.4-1.1-0.4c-0.7,0-1.2,0.1-1.5,0.4C58.7,9.2,58.5,9.6,58.4,10.2z M62,12.9
		c-0.6,0.3-1.2,0.5-1.8,0.7c-0.8,0.3-1.4,0.6-1.6,0.8c-0.2,0.3-0.3,0.6-0.3,1s0.1,0.7,0.3,1c0.2,0.3,0.6,0.4,1,0.4
		c0.5,0,0.9-0.1,1.3-0.4s0.7-0.6,0.9-1c0.2-0.4,0.3-0.9,0.3-1.6v-0.9H62z"/>
	<path class="st1" d="M68.8,24.5V5.8h3.9v2c0.5-0.8,1-1.4,1.5-1.7c0.6-0.4,1.3-0.6,2-0.6c1.5,0,2.6,0.7,3.4,2.1s1.2,3.1,1.2,5.1
		c0,2.2-0.4,4-1.3,5.2s-2,1.8-3.3,1.8c-0.6,0-1.2-0.1-1.8-0.4c-0.5-0.3-1-0.7-1.4-1.2v6.5h-4.2V24.5z M73,12.6
		c0,1.1,0.2,1.9,0.5,2.4c0.4,0.5,0.8,0.8,1.4,0.8c0.5,0,0.9-0.2,1.2-0.7c0.3-0.5,0.5-1.3,0.5-2.5c0-1.1-0.2-1.9-0.5-2.4
		s-0.8-0.8-1.2-0.8c-0.5,0-1,0.3-1.3,0.8C73.2,10.6,73,11.4,73,12.6z"/>
	<path class="st1" d="M86.6,10.2l-4-0.5c0.2-0.9,0.4-1.5,0.7-2c0.3-0.5,0.7-0.9,1.2-1.3c0.4-0.3,0.9-0.5,1.6-0.6s1.4-0.2,2.2-0.2
		c1.3,0,2.3,0.1,3,0.3c0.8,0.2,1.4,0.5,1.9,1.1c0.4,0.4,0.6,0.9,0.8,1.6c0.2,0.7,0.3,1.4,0.3,2v6c0,0.6,0,1.1,0.1,1.5
		s0.2,0.8,0.4,1.4h-3.9c-0.2-0.3-0.3-0.6-0.3-0.8c0-0.2-0.1-0.5-0.1-0.9c-0.5,0.7-1.1,1.1-1.6,1.4c-0.7,0.4-1.6,0.6-2.6,0.6
		c-1.3,0-2.3-0.4-3-1.1s-1-1.7-1-2.8c0-1,0.2-1.9,0.7-2.5s1.4-1.2,2.7-1.5c1.6-0.4,2.6-0.7,3-0.8c0.5-0.2,1-0.4,1.5-0.6
		c0-0.6-0.1-1.1-0.3-1.3c-0.2-0.3-0.6-0.4-1.1-0.4c-0.7,0-1.2,0.1-1.5,0.4C87,9.2,86.7,9.6,86.6,10.2z M90.2,12.9
		c-0.6,0.3-1.2,0.5-1.8,0.7c-0.8,0.3-1.4,0.6-1.6,0.8c-0.2,0.3-0.3,0.6-0.3,1s0.1,0.7,0.3,1c0.2,0.3,0.6,0.4,1,0.4
		c0.5,0,0.9-0.1,1.3-0.4s0.7-0.6,0.9-1c0.2-0.4,0.3-0.9,0.3-1.6v-0.9H90.2z"/>
	<path class="st1" d="M96.8,5.8h3.9V8c0.6-0.9,1.2-1.5,1.8-1.9c0.6-0.4,1.3-0.6,2.2-0.6c1.2,0,2.1,0.4,2.7,1.3c0.7,0.9,1,2.2,1,4
		v8.6h-4.2V12c0-0.8-0.1-1.4-0.4-1.8c-0.3-0.4-0.6-0.5-1.1-0.5s-0.9,0.2-1.2,0.7c-0.3,0.5-0.5,1.3-0.5,2.6v6.5h-4.2L96.8,5.8
		L96.8,5.8z"/>
</g>
</svg>
