<?xml version="1.0" encoding="utf-8"?>
<!-- Generator: Adobe Illustrator 24.0.3, SVG Export Plug-In . SVG Version: 6.00 Build 0)  -->
<svg version="1.1" id="レイヤー_1" xmlns:figma="http://www.figma.com/figma/ns"
	 xmlns="http://www.w3.org/2000/svg" xmlns:xlink="http://www.w3.org/1999/xlink" x="0px" y="0px" viewBox="0 0 109.5 24.5"
	 style="enable-background:new 0 0 109.5 24.5;" xml:space="preserve">
<style type="text/css">
	.st0{enable-background:new    ;}
	.st1{fill:#A81E2E;}
</style>
<title>Logo</title>
<g transform="translate(-1470)" figma:type="canvas">
	<g class="st0">
		<path class="st1" d="M1471,10c0-3,0.7-5.4,2.1-7.1c1.4-1.7,3.3-2.5,5.7-2.5c2.5,0,4.4,0.8,5.8,2.5c1.4,1.7,2,4,2,7
			c0,2.2-0.3,4-0.9,5.4c-0.6,1.4-1.4,2.5-2.6,3.3c-1.1,0.8-2.5,1.2-4.2,1.2c-1.7,0-3.1-0.3-4.2-1c-1.1-0.7-2-1.7-2.7-3.2
			S1471,12.2,1471,10z M1475.6,10c0,1.9,0.3,3.2,0.8,4.1c0.6,0.8,1.3,1.2,2.3,1.2c1,0,1.8-0.4,2.3-1.2s0.8-2.3,0.8-4.3
			c0-1.8-0.3-3-0.9-3.9c-0.6-0.8-1.3-1.2-2.3-1.2c-0.9,0-1.7,0.4-2.3,1.2C1475.9,6.8,1475.6,8.1,1475.6,10z"/>
		<path class="st1" d="M1489,0.6h12.4v4h-7.8v3h7.2v3.8h-7.2v3.7h8v4.2H1489V0.6z"/>
		<path class="st1" d="M1503.1,10.5h6.1v4h-6.1V10.5z"/>
		<path class="st1" d="M1517.4,0.6h4.7v10.1c0,2.1-0.2,3.8-0.5,4.9c-0.3,1.1-0.9,2.1-1.8,2.8c-0.9,0.8-2.1,1.2-3.5,1.2
			c-1.5,0-2.7-0.3-3.5-0.8s-1.5-1.3-1.9-2.2c-0.5-1-0.7-2.2-0.8-3.6l4.4-0.8c0,0.8,0.1,1.4,0.2,1.8c0.1,0.4,0.3,0.7,0.6,1
			c0.2,0.2,0.4,0.2,0.8,0.2c0.5,0,0.9-0.2,1.1-0.7s0.4-1.3,0.4-2.4V0.6z"/>
		<path class="st1" d="M1528.4,10.2l-4-0.5c0.2-0.9,0.4-1.5,0.7-2c0.3-0.5,0.7-0.9,1.2-1.3c0.4-0.3,0.9-0.5,1.6-0.6
			c0.7-0.1,1.4-0.2,2.2-0.2c1.3,0,2.3,0.1,3,0.3c0.8,0.2,1.4,0.5,1.9,1.1c0.4,0.4,0.6,0.9,0.8,1.6c0.2,0.7,0.3,1.4,0.3,2v6
			c0,0.6,0,1.1,0.1,1.5c0.1,0.4,0.2,0.8,0.4,1.4h-3.9c-0.2-0.3-0.3-0.6-0.3-0.8c0-0.2-0.1-0.5-0.1-0.9c-0.5,0.7-1.1,1.1-1.6,1.4
			c-0.7,0.4-1.6,0.6-2.6,0.6c-1.3,0-2.3-0.4-3-1.1c-0.7-0.7-1-1.7-1-2.8c0-1,0.2-1.9,0.7-2.5s1.4-1.2,2.7-1.5c1.6-0.4,2.6-0.7,3-0.8
			c0.5-0.2,1-0.4,1.5-0.6c0-0.6-0.1-1.1-0.3-1.3c-0.2-0.3-0.6-0.4-1.1-0.4c-0.7,0-1.2,0.1-1.5,0.4
			C1528.7,9.2,1528.5,9.6,1528.4,10.2z M1532,12.9c-0.6,0.3-1.2,0.5-1.8,0.7c-0.8,0.3-1.4,0.6-1.6,0.8c-0.2,0.3-0.3,0.6-0.3,1
			c0,0.4,0.1,0.7,0.3,1c0.2,0.3,0.6,0.4,1,0.4c0.5,0,0.9-0.1,1.3-0.4c0.4-0.3,0.7-0.6,0.9-1c0.2-0.4,0.3-0.9,0.3-1.6V12.9z"/>
		<path class="st1" d="M1538.8,24.5V5.8h3.9v2c0.5-0.8,1-1.4,1.5-1.7c0.6-0.4,1.3-0.6,2-0.6c1.5,0,2.6,0.7,3.4,2.1
			c0.8,1.4,1.2,3.1,1.2,5.1c0,2.2-0.4,4-1.3,5.2c-0.9,1.2-2,1.8-3.3,1.8c-0.6,0-1.2-0.1-1.8-0.4c-0.5-0.3-1-0.7-1.4-1.2v6.5H1538.8z
			 M1543,12.6c0,1.1,0.2,1.9,0.5,2.4c0.4,0.5,0.8,0.8,1.4,0.8c0.5,0,0.9-0.2,1.2-0.7c0.3-0.5,0.5-1.3,0.5-2.5c0-1.1-0.2-1.9-0.5-2.4
			c-0.3-0.5-0.8-0.8-1.2-0.8c-0.5,0-1,0.3-1.3,0.8C1543.2,10.6,1543,11.4,1543,12.6z"/>
		<path class="st1" d="M1556.6,10.2l-4-0.5c0.2-0.9,0.4-1.5,0.7-2c0.3-0.5,0.7-0.9,1.2-1.3c0.4-0.3,0.9-0.5,1.6-0.6
			c0.7-0.1,1.4-0.2,2.2-0.2c1.3,0,2.3,0.1,3,0.3c0.8,0.2,1.4,0.5,1.9,1.1c0.4,0.4,0.6,0.9,0.8,1.6c0.2,0.7,0.3,1.4,0.3,2v6
			c0,0.6,0,1.1,0.1,1.5c0.1,0.4,0.2,0.8,0.4,1.4h-3.9c-0.2-0.3-0.3-0.6-0.3-0.8c0-0.2-0.1-0.5-0.1-0.9c-0.5,0.7-1.1,1.1-1.6,1.4
			c-0.7,0.4-1.6,0.6-2.6,0.6c-1.3,0-2.3-0.4-3-1.1c-0.7-0.7-1-1.7-1-2.8c0-1,0.2-1.9,0.7-2.5s1.4-1.2,2.7-1.5c1.6-0.4,2.6-0.7,3-0.8
			c0.5-0.2,1-0.4,1.5-0.6c0-0.6-0.1-1.1-0.3-1.3c-0.2-0.3-0.6-0.4-1.1-0.4c-0.7,0-1.2,0.1-1.5,0.4C1557,9.2,1556.7,9.6,1556.6,10.2z
			 M1560.2,12.9c-0.6,0.3-1.2,0.5-1.8,0.7c-0.8,0.3-1.4,0.6-1.6,0.8c-0.2,0.3-0.3,0.6-0.3,1c0,0.4,0.1,0.7,0.3,1
			c0.2,0.3,0.6,0.4,1,0.4c0.5,0,0.9-0.1,1.3-0.4c0.4-0.3,0.7-0.6,0.9-1c0.2-0.4,0.3-0.9,0.3-1.6V12.9z"/>
		<path class="st1" d="M1566.8,5.8h3.9V8c0.6-0.9,1.2-1.5,1.8-1.9c0.6-0.4,1.3-0.6,2.2-0.6c1.2,0,2.1,0.4,2.7,1.3c0.7,0.9,1,2.2,1,4
			v8.6h-4.2v-7.4c0-0.8-0.1-1.4-0.4-1.8c-0.3-0.4-0.6-0.5-1.1-0.5c-0.5,0-0.9,0.2-1.2,0.7c-0.3,0.5-0.5,1.3-0.5,2.6v6.5h-4.2V5.8z"
			/>
	</g>
</g>
</svg>
