<?xml version="1.0" encoding="UTF-8"?>
<!DOCTYPE svg PUBLIC "-//W3C//DTD SVG 1.1//EN" "http://www.w3.org/Graphics/SVG/1.1/DTD/svg11.dtd">
<svg xmlns="http://www.w3.org/2000/svg" version="1.1" width="1920px" height="580px" style="shape-rendering:geometricPrecision; text-rendering:geometricPrecision; image-rendering:optimizeQuality; fill-rule:evenodd; clip-rule:evenodd" xmlns:xlink="http://www.w3.org/1999/xlink">
<g><path style="opacity:0.997" fill="#b01d2e" d="M 290.5,-0.5 C 293.833,-0.5 297.167,-0.5 300.5,-0.5C 402.701,6.90739 482.034,52.9074 538.5,137.5C 554.232,163.643 565.566,191.643 572.5,221.5C 583.105,267.464 583.105,313.464 572.5,359.5C 565.46,388.958 554.127,416.625 538.5,442.5C 484.859,524.043 409.193,569.71 311.5,579.5C 294.5,579.5 277.5,579.5 260.5,579.5C 154.257,564.724 76.7574,509.724 28,414.5C 9.51746,374.901 0.350793,333.234 0.5,289.5C 97.1667,289.5 193.833,289.5 290.5,289.5C 290.5,192.833 290.5,96.1667 290.5,-0.5 Z"/></g>
<g><path style="opacity:0.987" fill="#3f91cf" d="M 300.5,-0.5 C 448.5,-0.5 596.5,-0.5 744.5,-0.5C 744.5,45.5 744.5,91.5 744.5,137.5C 675.833,137.5 607.167,137.5 538.5,137.5C 482.034,52.9074 402.701,6.90739 300.5,-0.5 Z"/></g>
<g><path style="opacity:0.973" fill="#7b7c7b" d="M 917.5,6.5 C 949.637,3.48678 974.137,15.4868 991,42.5C 1005.13,75.48 998.961,103.98 972.5,128C 949.338,142.532 924.672,145.532 898.5,137C 865.335,121.174 851.835,95.0074 858,58.5C 866.799,28.5343 886.632,11.201 917.5,6.5 Z M 922.5,39.5 C 949.497,39.9948 962.664,53.6615 962,80.5C 955.481,101.35 941.314,110.516 919.5,108C 902.534,103.246 893.201,92.0793 891.5,74.5C 893.779,55.5613 904.112,43.8947 922.5,39.5 Z"/></g>
<g><path style="opacity:0.981" fill="#7b7c7b" d="M 1017.5,10.5 C 1040.88,10.0518 1064.21,10.5518 1087.5,12C 1106.61,18.8112 1115.95,32.4779 1115.5,53C 1115.03,78.7968 1102.03,93.1302 1076.5,96C 1068.17,96.4997 1059.84,96.6664 1051.5,96.5C 1051.5,110.5 1051.5,124.5 1051.5,138.5C 1040.17,138.5 1028.83,138.5 1017.5,138.5C 1017.5,95.8333 1017.5,53.1667 1017.5,10.5 Z M 1051.5,37.5 C 1059.5,36.7821 1067.17,37.9488 1074.5,41C 1081.17,49 1081.17,57 1074.5,65C 1072.28,66.2754 1069.95,67.2754 1067.5,68C 1062.18,68.4994 1056.84,68.666 1051.5,68.5C 1051.5,58.1667 1051.5,47.8333 1051.5,37.5 Z"/></g>
<g><path style="opacity:0.977" fill="#7b7c7b" d="M 1132.5,10.5 C 1156.83,10.5 1181.17,10.5 1205.5,10.5C 1205.5,20.1667 1205.5,29.8333 1205.5,39.5C 1192.5,39.5 1179.5,39.5 1166.5,39.5C 1166.5,46.1667 1166.5,52.8333 1166.5,59.5C 1178.83,59.5 1191.17,59.5 1203.5,59.5C 1203.5,69.1667 1203.5,78.8333 1203.5,88.5C 1191.17,88.5 1178.83,88.5 1166.5,88.5C 1166.5,95.5 1166.5,102.5 1166.5,109.5C 1179.5,109.5 1192.5,109.5 1205.5,109.5C 1205.5,119.167 1205.5,128.833 1205.5,138.5C 1181.17,138.5 1156.83,138.5 1132.5,138.5C 1132.5,95.8333 1132.5,53.1667 1132.5,10.5 Z"/></g>
<g><path style="opacity:0.978" fill="#7b7c7b" d="M 1232.5,10.5 C 1244.17,10.3335 1255.84,10.5001 1267.5,11C 1287,35.8333 1306.5,60.6667 1326,85.5C 1326.5,60.5022 1326.67,35.5022 1326.5,10.5C 1337.83,10.5 1349.17,10.5 1360.5,10.5C 1360.5,53.1667 1360.5,95.8333 1360.5,138.5C 1349.16,138.667 1337.83,138.5 1326.5,138C 1306.67,112.833 1286.83,87.6667 1267,62.5C 1266.5,87.8311 1266.33,113.164 1266.5,138.5C 1255.17,138.5 1243.83,138.5 1232.5,138.5C 1232.5,95.8333 1232.5,53.1667 1232.5,10.5 Z"/></g>
<g><path style="opacity:0.99" fill="#3f91cf" d="M 572.5,221.5 C 629.833,221.5 687.167,221.5 744.5,221.5C 744.5,267.5 744.5,313.5 744.5,359.5C 687.167,359.5 629.833,359.5 572.5,359.5C 583.105,313.464 583.105,267.464 572.5,221.5 Z"/></g>
<g><path style="opacity:0.971" fill="#7b7c7b" d="M 1281.5,223.5 C 1295.89,222.055 1309.72,224.055 1323,229.5C 1323.67,243.167 1323.67,256.833 1323,270.5C 1308.88,254.803 1292.72,252.303 1274.5,263C 1260.9,275.512 1257.74,290.346 1265,307.5C 1274.27,322.214 1287.43,327.714 1304.5,324C 1311.76,321.455 1317.92,317.288 1323,311.5C 1323.83,325.179 1323.67,338.846 1322.5,352.5C 1285.53,366.12 1256.03,356.787 1234,324.5C 1218.81,292.478 1223.64,263.978 1248.5,239C 1258.3,231.099 1269.3,225.933 1281.5,223.5 Z"/></g>
<g><path style="opacity:0.973" fill="#7b7c7b" d="M 1689.5,223.5 C 1717.72,219.845 1741.22,228.512 1760,249.5C 1778.22,277.74 1777.89,305.74 1759,333.5C 1736.27,356.854 1709.1,364.021 1677.5,355C 1643.9,341.656 1628.73,316.823 1632,280.5C 1638.43,248.574 1657.59,229.574 1689.5,223.5 Z M 1695.5,256.5 C 1720.24,255.086 1734.24,266.586 1737.5,291C 1735.25,312.25 1723.42,323.75 1702,325.5C 1681.33,323.166 1669.5,311.666 1666.5,291C 1668.11,272.568 1677.78,261.068 1695.5,256.5 Z"/></g>
<g><path style="opacity:0.969" fill="#7b7c7b" d="M 1095.5,224.5 C 1106.83,224.5 1118.17,224.5 1129.5,224.5C 1129.05,253.537 1129.55,282.537 1131,311.5C 1135.57,324.542 1144.74,329.375 1158.5,326C 1165.67,324.167 1170.17,319.667 1172,312.5C 1173.45,283.203 1173.95,253.87 1173.5,224.5C 1184.83,224.5 1196.17,224.5 1207.5,224.5C 1207.67,253.169 1207.5,281.835 1207,310.5C 1202.97,343.015 1184.47,358.348 1151.5,356.5C 1118.53,358.348 1100.03,343.015 1096,310.5C 1095.5,281.835 1095.33,253.169 1095.5,224.5 Z"/></g>
<g><path style="opacity:0.967" fill="#7b7c7b" d="M 862.5,226.5 C 886.833,226.5 911.167,226.5 935.5,226.5C 935.5,236.167 935.5,245.833 935.5,255.5C 922.5,255.5 909.5,255.5 896.5,255.5C 896.5,262.167 896.5,268.833 896.5,275.5C 908.833,275.5 921.167,275.5 933.5,275.5C 933.5,285.5 933.5,295.5 933.5,305.5C 921.167,305.5 908.833,305.5 896.5,305.5C 896.5,312.167 896.5,318.833 896.5,325.5C 909.5,325.5 922.5,325.5 935.5,325.5C 935.5,335.5 935.5,345.5 935.5,355.5C 911.167,355.5 886.833,355.5 862.5,355.5C 862.5,312.5 862.5,269.5 862.5,226.5 Z"/></g>
<g><path style="opacity:0.964" fill="#7b7c7b" d="M 961.5,226.5 C 980.503,226.333 999.503,226.5 1018.5,227C 1053.29,233.952 1071.95,255.119 1074.5,290.5C 1073.76,316.046 1062.42,335.212 1040.5,348C 1035.05,350.595 1029.38,352.595 1023.5,354C 1002.86,355.356 982.193,355.856 961.5,355.5C 961.5,312.5 961.5,269.5 961.5,226.5 Z M 996.5,255.5 C 1026.71,254.87 1040.54,269.536 1038,299.5C 1034.87,313.298 1026.37,321.798 1012.5,325C 1007.18,325.499 1001.84,325.666 996.5,325.5C 996.5,302.167 996.5,278.833 996.5,255.5 Z"/></g>
<g><path style="opacity:0.97" fill="#7b7c7b" d="M 1384.5,226.5 C 1397.08,226.178 1409.58,226.511 1422,227.5C 1438.17,269.833 1454.33,312.167 1470.5,354.5C 1458.51,355.666 1446.51,355.833 1434.5,355C 1431.54,347.966 1428.88,340.799 1426.5,333.5C 1411.18,332.334 1395.84,332.167 1380.5,333C 1377.7,340.097 1375.04,347.264 1372.5,354.5C 1360.52,355.499 1348.52,355.832 1336.5,355.5C 1352.1,312.357 1368.1,269.357 1384.5,226.5 Z M 1402.5,267.5 C 1403.12,267.611 1403.62,267.944 1404,268.5C 1408.31,281.093 1412.81,293.593 1417.5,306C 1408.15,306.832 1398.82,306.665 1389.5,305.5C 1394.24,292.947 1398.57,280.281 1402.5,267.5 Z"/></g>
<g><path style="opacity:0.972" fill="#7b7c7b" d="M 1466.5,226.5 C 1495.83,226.5 1525.17,226.5 1554.5,226.5C 1554.5,236.167 1554.5,245.833 1554.5,255.5C 1545.5,255.5 1536.5,255.5 1527.5,255.5C 1527.5,288.833 1527.5,322.167 1527.5,355.5C 1516.17,355.5 1504.83,355.5 1493.5,355.5C 1493.5,322.167 1493.5,288.833 1493.5,255.5C 1484.5,255.5 1475.5,255.5 1466.5,255.5C 1466.5,245.833 1466.5,236.167 1466.5,226.5 Z"/></g>
<g><path style="opacity:0.969" fill="#7b7c7b" d="M 1577.5,226.5 C 1588.83,226.5 1600.17,226.5 1611.5,226.5C 1611.5,269.5 1611.5,312.5 1611.5,355.5C 1600.17,355.5 1588.83,355.5 1577.5,355.5C 1577.5,312.5 1577.5,269.5 1577.5,226.5 Z"/></g>
<g><path style="opacity:0.971" fill="#7b7c7b" d="M 1919.5,226.5 C 1919.5,269.5 1919.5,312.5 1919.5,355.5C 1908.16,355.667 1896.83,355.5 1885.5,355C 1865.67,329.833 1845.83,304.667 1826,279.5C 1825.5,304.831 1825.33,330.164 1825.5,355.5C 1814.17,355.5 1802.83,355.5 1791.5,355.5C 1791.5,312.5 1791.5,269.5 1791.5,226.5C 1802.84,226.333 1814.17,226.5 1825.5,227C 1845.33,252.167 1865.17,277.333 1885,302.5C 1885.5,277.169 1885.67,251.836 1885.5,226.5C 1896.83,226.5 1908.17,226.5 1919.5,226.5 Z"/></g>
<g><path style="opacity:0.995" fill="#3f91cf" d="M 538.5,442.5 C 607.167,442.5 675.833,442.5 744.5,442.5C 744.5,488.167 744.5,533.833 744.5,579.5C 600.167,579.5 455.833,579.5 311.5,579.5C 409.193,569.71 484.859,524.043 538.5,442.5 Z"/></g>
<g><path style="opacity:0.965" fill="#b01d2d" d="M 890.5,442.5 C 902.167,442.5 913.833,442.5 925.5,442.5C 925.967,478.54 925.467,514.54 924,550.5C 916.186,568.76 902.186,577.76 882,577.5C 860.461,577.606 845.628,567.772 837.5,548C 846.947,542.863 856.78,538.363 867,534.5C 867.772,534.645 868.439,534.978 869,535.5C 870.822,544.003 875.988,547.836 884.5,547C 886.286,546.215 887.786,545.049 889,543.5C 890.479,509.896 890.979,476.229 890.5,442.5 Z"/></g>
<g><path style="opacity:0.965" fill="#b01d2d" d="M 988.5,442.5 C 1000.85,442.168 1013.18,442.501 1025.5,443.5C 1042.08,485.979 1058.08,528.646 1073.5,571.5C 1061.48,571.832 1049.48,571.499 1037.5,570.5C 1034.87,563.573 1032.53,556.573 1030.5,549.5C 1014.83,549.333 999.163,549.5 983.5,550C 980.666,557.002 978.333,564.169 976.5,571.5C 964.149,571.832 951.815,571.499 939.5,570.5C 955.842,527.805 972.175,485.138 988.5,442.5 Z M 1006.5,483.5 C 1011.33,495.991 1016,508.658 1020.5,521.5C 1011.52,522.498 1002.52,522.832 993.5,522.5C 997.632,509.438 1001.97,496.438 1006.5,483.5 Z"/></g>
<g><path style="opacity:0.962" fill="#b01d2d" d="M 1090.5,442.5 C 1112.86,442.104 1135.2,442.604 1157.5,444C 1174.33,447.5 1184.5,457.667 1188,474.5C 1190.78,489.36 1188.11,503.027 1180,515.5C 1174.89,520.974 1168.73,524.807 1161.5,527C 1149.58,528.963 1137.58,529.796 1125.5,529.5C 1125.5,543.5 1125.5,557.5 1125.5,571.5C 1113.83,571.5 1102.17,571.5 1090.5,571.5C 1090.5,528.5 1090.5,485.5 1090.5,442.5 Z M 1125.5,470.5 C 1133.51,469.708 1141.18,470.875 1148.5,474C 1155.63,483.067 1154.96,491.4 1146.5,499C 1139.69,501.155 1132.69,501.988 1125.5,501.5C 1125.5,491.167 1125.5,480.833 1125.5,470.5 Z"/></g>
<g><path style="opacity:0.964" fill="#b01d2d" d="M 1234.5,442.5 C 1247.17,442.5 1259.83,442.5 1272.5,442.5C 1288.5,485.5 1304.5,528.5 1320.5,571.5C 1308.5,571.667 1296.5,571.5 1284.5,571C 1282.03,563.922 1279.36,556.922 1276.5,550C 1261.17,549.333 1245.83,549.333 1230.5,550C 1227.64,556.922 1224.97,563.922 1222.5,571C 1210.5,571.5 1198.5,571.667 1186.5,571.5C 1202.5,528.5 1218.5,485.5 1234.5,442.5 Z M 1252.5,484.5 C 1253.5,484.47 1254.16,484.97 1254.5,486C 1258.64,498.093 1262.97,510.093 1267.5,522C 1258.17,522.667 1248.83,522.667 1239.5,522C 1244.33,509.669 1248.67,497.169 1252.5,484.5 Z"/></g>
<g><path style="opacity:0.971" fill="#b01d2d" d="M 1335.5,442.5 C 1346.84,442.333 1358.17,442.5 1369.5,443C 1389.45,468.41 1409.29,493.91 1429,519.5C 1429.5,493.835 1429.67,468.169 1429.5,442.5C 1440.83,442.5 1452.17,442.5 1463.5,442.5C 1463.5,485.5 1463.5,528.5 1463.5,571.5C 1452.16,571.667 1440.83,571.5 1429.5,571C 1409.67,545.833 1389.83,520.667 1370,495.5C 1369.5,520.831 1369.33,546.164 1369.5,571.5C 1358.17,571.5 1346.83,571.5 1335.5,571.5C 1335.5,528.5 1335.5,485.5 1335.5,442.5 Z"/></g>
</svg>
